<svg width="130" height="130" viewBox="0 0 130 130" fill="none" xmlns="http://www.w3.org/2000/svg">
<circle cx="65" cy="65" r="65" fill="#D9A85C"/>
<path d="M29.0381 61.6214C29.9337 68.5627 32.1978 75.7529 33.0934 82.6942C33.2178 83.7392 33.392 84.8339 34.0388 85.6549C34.5862 86.3515 35.3823 86.7496 36.1785 87.1228C49.4641 93.3924 64.6654 94.5368 79.2944 93.3924C87.7037 92.7455 96.6852 91.0537 102.706 85.1822C102.93 84.9831 103.029 84.6846 103.104 84.4109C105.045 76.4495 107.682 68.3886 109 60.875" stroke="#F9F2E5" stroke-width="3" stroke-miterlimit="10" stroke-linecap="round"/>
<path d="M91.8829 66.3988C96.4109 65.0553 100.74 63.1644 104.82 60.8009C107.034 59.5072 109.423 57.7159 108.527 54.6806C108.154 53.3868 107.184 52.3419 106.039 51.5955C103.029 49.7047 99.5706 48.7842 96.1373 47.988C86.708 45.8235 76.7065 44.4054 67.0284 44.3307C54.9868 44.2312 42.9203 46.968 32.1475 52.2424C31.0528 52.7897 30.0825 53.6108 29.5103 54.6806C27.8434 57.9149 30.5801 60.3033 33.1178 61.7961C37.3473 64.3089 41.9997 66.1251 46.8263 67.17C47.921 67.4188 48.7918 68.1901 49.1152 69.2599C50.0109 72.3449 49.3889 76.4003 50.7075 79.1868C51.5783 81.0527 53.6433 82.1225 55.6585 82.7943C56.1561 82.9684 56.6786 83.068 57.201 83.1177C64.6151 83.9885 68.5958 83.4412 74.4176 83.6402C76.5323 83.7148 78.6968 83.7895 80.7618 83.267C82.8268 82.7445 84.8172 81.5752 85.7626 79.7092C86.7329 77.8433 86.509 75.6041 86.8573 73.5391C87.33 70.6283 89.0218 67.2198 91.9078 66.349L91.8829 66.3988Z" stroke="#F9F2E5" stroke-width="3" stroke-miterlimit="10" stroke-linecap="round"/>
<path d="M50.957 66.8958C62.6006 63.9352 74.9656 63.9103 86.6341 66.7963" stroke="#F9F2E5" stroke-width="3" stroke-miterlimit="10" stroke-linecap="round"/>
<path d="M37.5712 33.5331C39.2381 33.4087 40.905 33.4833 42.5719 33.7072C40.1586 35.399 39.1635 38.5836 36.9492 40.5242C38.7903 40.8227 40.3328 40.6237 42.1988 40.6486" stroke="#F9F2E5" stroke-width="2.26244" stroke-linecap="round" stroke-linejoin="round"/>
<path d="M46.702 30C47.7967 30.1244 48.8416 30.3732 49.8865 30.7215C48.145 31.5176 47.1249 33.4334 45.458 34.4037C46.6025 34.8266 47.5976 34.8764 48.7918 35.1252" stroke="#F9F2E5" stroke-width="2.26244" stroke-linecap="round" stroke-linejoin="round"/>
<path d="M48.8577 39.7082C48.8643 39.7116 48.871 39.7151 48.8777 39.7188L48.8541 39.7355L48.497 39.9875L48.4854 39.9957L48.2315 40.1749C48.2083 40.142 48.1988 40.1172 48.1949 40.1045C48.1909 40.0918 48.189 40.0799 48.1888 40.0661C48.1886 40.0515 48.1904 39.9581 48.2786 39.8406C48.2832 39.8344 48.288 39.8282 48.2932 39.8219C48.3972 39.6938 48.5034 39.6615 48.5613 39.6525C48.6114 39.6448 48.7247 39.6412 48.8577 39.7082Z" fill="#F9F2E5" stroke="#F9F2E5" stroke-width="3.01659"/>
</svg>
