<svg width="130" height="130" viewBox="0 0 130 130" fill="none" xmlns="http://www.w3.org/2000/svg">
<circle cx="65" cy="65" r="65" fill="#E1AC7D"/>
<path d="M31.2116 58.1704C28.9522 63.4056 26.3622 69.1643 24.5987 74.6751C24.3232 75.5292 24.5988 76.5487 25.2325 77.0447C32.5067 82.7483 41.2687 85.9445 50.0308 86.7436C59.2337 87.5978 69.594 87.8458 78.8244 87.0742C87.3661 86.3579 95.7424 84.2913 102.218 79.249C103.513 78.5326 104.835 76.4385 104.752 76.0803C103.43 71.4789 101.97 66.6294 100.647 62.0279C100.399 61.1462 99.9581 60.2094 99.5999 59.0797" stroke="#F9F2E5" stroke-width="3.01659" stroke-miterlimit="10" stroke-linecap="round"/>
<path d="M33.1951 55.4155C32.5063 54.8369 33.3329 53.7898 34.0493 53.2112C35.5096 51.9988 37.2455 51.4753 39.257 51.0896C41.4337 50.6763 43.4176 50.3181 45.6494 50.0976C56.7536 48.9679 67.8853 48.2515 79.017 49.1608C83.4807 49.519 88.1923 49.9874 92.5458 50.9794C93.8133 51.2549 95.1634 51.8611 96.2931 52.3019C99.0485 53.4041 98.4423 55.3879 97.3126 56.0768C93.2347 58.5842 88.3026 59.7965 83.5358 60.4027C69.7314 62.1111 55.679 61.3947 41.9848 58.8322C39.009 58.2811 35.923 57.5647 33.5809 55.691" stroke="#F9F2E5" stroke-width="3.01659" stroke-miterlimit="10" stroke-linecap="round"/>
<path d="M24.1574 75.3364C18.4262 77.5958 21.9531 81.7013 23.4686 82.6382C30.8529 87.2396 40.111 90.1052 48.4322 91.5931C57.0014 93.1086 66.4799 93.1086 75.1593 92.5024C86.4563 91.7033 97.8636 88.948 106.626 81.784C108.058 80.5992 109.298 77.2652 105.303 75.6946" stroke="#F9F2E5" stroke-width="3.01659" stroke-miterlimit="10" stroke-linecap="round"/>
<path d="M63.2285 57.7027L72.5692 44.6973C73.8367 42.9063 72.5968 39.407 72.6794 37.2303C72.7621 35.0535 74.4704 32.4635 76.5645 33.0972C78.2728 33.6207 79.5954 35.3566 79.9812 37.0925C80.6149 39.8754 82.5712 38.7733 84.5 38.6631C85.8501 38.5804 87.6962 39.3519 87.9442 40.702C88.2473 42.2175 88.1922 43.7329 87.3104 44.9453C86.5941 45.9372 85.4368 46.4883 84.3898 47.0945C78.7413 50.3183 77.4462 52.9359 73.9194 58.7497" fill="#E1AC7D"/>
<path d="M63.2285 57.7027L72.5692 44.6973C73.8367 42.9063 72.5968 39.407 72.6794 37.2303C72.7621 35.0535 74.4704 32.4635 76.5645 33.0972C78.2728 33.6207 79.5954 35.3566 79.9812 37.0925C80.6149 39.8754 82.5712 38.7733 84.5 38.6631C85.8501 38.5804 87.6962 39.3519 87.9442 40.702C88.2473 42.2175 88.1922 43.7329 87.3104 44.9453C86.5941 45.9372 85.4368 46.4883 84.3898 47.0945C78.7413 50.3183 77.4462 52.9359 73.9194 58.7497" stroke="#F9F2E5" stroke-width="3.01659" stroke-miterlimit="10" stroke-linecap="round"/>
</svg>
