<svg width="130" height="130" viewBox="0 0 130 130" fill="none" xmlns="http://www.w3.org/2000/svg">
<circle cx="65" cy="65" r="65" fill="#ECD3B4"/>
<path d="M24.9727 55.5069C33.7509 49.3832 46.3 47.6939 57.6122 47.1208C68.9244 46.5476 79.2713 48.0861 90.4025 50.2278C95.9531 51.3138 103.676 53.7874 105.847 56.8342" stroke="#F9F2E5" stroke-width="3.01659" stroke-miterlimit="10" stroke-linecap="round"/>
<path d="M106.089 57.7994C105.999 59.006 106.421 64.647 106.33 65.9442C106.33 66.095 106.24 66.2157 106.119 66.3062C99.6034 71.193 90.3123 73.2443 82.258 74.3906C72.7558 75.7783 61.0514 75.0844 49.9805 73.7873C41.1721 72.7617 31.5793 70.4087 24.5808 65.371C24.3093 65.1599 24.1887 64.828 24.1283 64.4962C23.7965 62.2036 24.1887 58.2217 24.3998 56.1704" stroke="#F9F2E5" stroke-width="3.01659" stroke-miterlimit="10" stroke-linecap="round"/>
<path d="M28.623 59.5494C50.071 50.4997 79.8448 50.1075 102.861 59.5494" stroke="#F9F2E5" stroke-width="3.01659" stroke-miterlimit="10" stroke-linecap="round"/>
<path d="M25.0635 58.1611C28.6231 61.3286 35.8327 64.134 41.2927 64.8881C56.617 66.9997 64.5808 69.051 79.9051 66.8791C86.1796 65.9741 97.7332 63.6815 105.244 59.5488" stroke="#F9F2E5" stroke-width="3.01659" stroke-miterlimit="10" stroke-linecap="round"/>
<path d="M42.6504 63.4704C43.5855 63.2894 44.3397 64.2246 44.6715 65.0994C45.8781 68.116 45.305 71.7962 43.1632 74.2698" stroke="#F9F2E5" stroke-width="3.01659" stroke-miterlimit="10" stroke-linecap="round"/>
<path d="M45.6976 74.9341C47.0551 76.8345 46.9948 79.3684 45.5166 81.2086C44.0385 83.0487 41.0521 83.5313 39.2421 82.0532C38.6086 81.5404 38.1562 80.8466 37.8243 80.1226C37.1607 78.5841 37.1908 76.6837 38.2165 75.3564C39.2421 74.0291 41.2331 73.1241 42.8922 73.3353C44.5513 73.5464 45.6976 74.9642 45.6976 74.9642V74.9341Z" stroke="#F9F2E5" stroke-width="2.26244" stroke-miterlimit="10" stroke-linecap="round"/>
</svg>
