<svg width="130" height="130" viewBox="0 0 130 130" fill="none" xmlns="http://www.w3.org/2000/svg">
<circle cx="65" cy="65" r="65" fill="#DB9362"/>
<path d="M87.1494 44.9278C95.3501 56.4758 94.8899 71.7057 86.0197 82.7516C77.1495 93.7975 59.1581 96.6845 48.154 87.7725C44.3884 84.7181 41.5432 80.5759 39.6604 76.1408C35.7274 66.8941 35.8948 55.4716 41.9198 47.4382C47.9448 39.4048 60.1623 33.9237 70.1621 35.179C80.2457 36.4342 87.1494 44.9278 87.1494 44.9278Z" stroke="#F9F2E5" stroke-width="4" stroke-miterlimit="10" stroke-linecap="round"/>
<path d="M47.0244 50.0322C50.3298 52.5008 51.7524 55.9736 52.7147 59.3627C54.7649 66.6011 54.9741 74.6763 49.4512 80.8268" stroke="#F9F2E5" stroke-width="4" stroke-miterlimit="10" stroke-linecap="round"/>
<path d="M83.4672 78.0651C80.4965 75.5547 79.2413 71.9983 78.3626 68.5255C76.5217 61.1197 76.3125 52.8771 81.2915 46.6011" stroke="#F9F2E5" stroke-width="4" stroke-miterlimit="10" stroke-linecap="round"/>
</svg>
