<svg width="179" height="129" viewBox="0 0 179 129" fill="none" xmlns="http://www.w3.org/2000/svg">
<rect width="179" height="129" fill="#F9F2E5"/>
<path d="M31.88 98.44L32.134 97.7343L32.1291 97.7326L31.88 98.44ZM29.64 93.56L30.3526 93.7938L30.361 93.7681L30.3676 93.7419L29.64 93.56ZM30.8 91.2L31.1885 90.5585L30.6484 90.2314L30.234 90.7079L30.8 91.2ZM40.84 90.84L41.5896 90.8158L41.5891 90.8002L41.588 90.7846L40.84 90.84ZM37.52 88.44L37.7019 87.7124L37.6991 87.7117L37.52 88.44ZM35.08 87.84L35.2591 87.1117L35.2583 87.1115L35.08 87.84ZM28.68 80.68L29.4289 80.6388L29.4286 80.6342L28.68 80.68ZM45.56 72.48L45.2579 73.1665L45.2707 73.1721L45.2837 73.1773L45.56 72.48ZM47.2 77.4L47.9115 77.6372L47.9137 77.6305L47.9159 77.6237L47.2 77.4ZM46.24 79.44L45.9046 80.1108L46.5146 80.4158L46.876 79.8375L46.24 79.44ZM36.76 79.96L36.0103 79.9827L36.0108 79.9981L36.0119 80.0134L36.76 79.96ZM39.6 82L39.7974 81.2764L39.7893 81.2743L39.6 82ZM42.24 82.72L42.0427 83.4436L42.0478 83.4449L42.24 82.72ZM49.24 90.16L48.4914 90.2051L48.4916 90.2089L49.24 90.16ZM32.1291 97.7326C30.7669 97.2529 30.2624 96.7716 30.0764 96.3065C29.8748 95.8027 29.935 95.0664 30.3526 93.7938L28.9274 93.3262C28.505 94.6136 28.2652 95.8173 28.6836 96.8635C29.1176 97.9484 30.1531 98.6271 31.6309 99.1474L32.1291 97.7326ZM30.3676 93.7419C30.5255 93.1103 30.7813 92.5887 30.9988 92.2247C31.107 92.0436 31.2041 91.9043 31.2719 91.8129C31.3057 91.7673 31.332 91.7339 31.3485 91.7134C31.3567 91.7032 31.3625 91.6963 31.3655 91.6927C31.367 91.6909 31.3679 91.6899 31.3679 91.6898C31.368 91.6898 31.3678 91.69 31.3675 91.6903C31.3673 91.6905 31.3671 91.6908 31.3669 91.6911C31.3667 91.6912 31.3666 91.6914 31.3664 91.6916C31.3664 91.6917 31.3662 91.6918 31.3662 91.6918C31.3661 91.692 31.366 91.6921 30.8 91.2C30.234 90.7079 30.2339 90.708 30.2338 90.7082C30.2337 90.7082 30.2336 90.7084 30.2335 90.7085C30.2333 90.7088 30.2331 90.709 30.2328 90.7093C30.2324 90.7098 30.2319 90.7104 30.2313 90.711C30.2302 90.7123 30.2289 90.7138 30.2275 90.7155C30.2245 90.719 30.2208 90.7234 30.2163 90.7287C30.2074 90.7393 30.1957 90.7535 30.1813 90.7712C30.1527 90.8067 30.1137 90.8564 30.0669 90.9196C29.9734 91.0457 29.848 91.2264 29.7112 91.4553C29.4387 91.9113 29.1145 92.5697 28.9124 93.3781L30.3676 93.7419ZM30.8 91.2C30.4115 91.8415 30.4117 91.8417 30.4119 91.8418C30.412 91.8419 30.4123 91.842 30.4125 91.8421C30.4128 91.8423 30.4132 91.8426 30.4137 91.8429C30.4146 91.8434 30.4157 91.8441 30.417 91.8448C30.4195 91.8463 30.4227 91.8483 30.4266 91.8506C30.4345 91.8552 30.4451 91.8614 30.4584 91.8691C30.4851 91.8845 30.5227 91.9058 30.5709 91.9321C30.6673 91.9848 30.8062 92.0577 30.985 92.1441C31.3423 92.3167 31.8598 92.5435 32.516 92.7692C33.8276 93.2204 35.7008 93.67 37.96 93.67V92.17C35.8992 92.17 34.1924 91.7596 33.004 91.3508C32.4102 91.1465 31.9477 90.9433 31.6375 90.7934C31.4825 90.7185 31.3658 90.6571 31.29 90.6157C31.2521 90.595 31.2245 90.5794 31.2075 90.5695C31.199 90.5646 31.1931 90.5612 31.1899 90.5593C31.1883 90.5584 31.1874 90.5578 31.1872 90.5577C31.1871 90.5576 31.1871 90.5576 31.1873 90.5578C31.1875 90.5578 31.1876 90.5579 31.1878 90.558C31.1879 90.5581 31.1881 90.5582 31.1881 90.5582C31.1883 90.5584 31.1885 90.5585 30.8 91.2ZM37.96 93.67C38.9655 93.67 39.8665 93.4367 40.5322 92.9508C41.2209 92.448 41.6181 91.6978 41.5896 90.8158L40.0904 90.8642C40.1019 91.2222 39.9591 91.512 39.6478 91.7392C39.3135 91.9833 38.7545 92.17 37.96 92.17V93.67ZM41.588 90.7846C41.5313 90.02 41.1863 89.3747 40.5 88.86C39.8583 88.3787 38.9306 88.0196 37.7019 87.7124L37.3381 89.1676C38.5094 89.4604 39.2017 89.7613 39.6 90.06C39.9537 90.3253 40.0687 90.58 40.092 90.8954L41.588 90.7846ZM37.6991 87.7117L35.2591 87.1117L34.9009 88.5683L37.3409 89.1683L37.6991 87.7117ZM35.2583 87.1115C33.4466 86.6682 32.0598 86.0154 31.0974 85.0269C30.1502 84.0538 29.5412 82.6796 29.4289 80.6388L27.9311 80.7212C28.0588 83.0404 28.7698 84.7862 30.0226 86.0731C31.2603 87.3446 32.9534 88.0918 34.9017 88.5685L35.2583 87.1115ZM29.4286 80.6342C29.2618 77.9102 30.2002 75.823 31.841 74.4019C33.501 72.9642 35.9501 72.15 38.88 72.15V70.65C35.6899 70.65 32.859 71.5358 30.859 73.2681C28.8398 75.017 27.7382 77.5698 27.9314 80.7258L29.4286 80.6342ZM38.88 72.15C41.8819 72.15 44.3743 72.7777 45.2579 73.1665L45.8621 71.7935C44.7457 71.3023 42.0381 70.65 38.88 70.65V72.15ZM45.2837 73.1773C46.3214 73.5884 46.6982 73.9168 46.8472 74.3167C47.0195 74.7794 46.9849 75.5738 46.4841 77.1763L47.9159 77.6237C48.4151 76.0262 48.6205 74.7806 48.2528 73.7933C47.8618 72.7432 46.9186 72.2116 45.8363 71.7827L45.2837 73.1773ZM46.4885 77.1628C46.3254 77.6521 46.1042 78.1239 45.9196 78.479C45.8281 78.6549 45.7474 78.7987 45.6903 78.8973C45.6618 78.9466 45.6392 78.9844 45.6243 79.0092C45.6168 79.0216 45.6113 79.0307 45.6078 79.0363C45.6061 79.0391 45.6049 79.0411 45.6042 79.0421C45.6039 79.0426 45.6037 79.0429 45.6037 79.043C45.6037 79.043 45.6037 79.043 45.6037 79.0429C45.6038 79.0429 45.6038 79.0428 45.6038 79.0427C45.6039 79.0427 45.6039 79.0427 45.6039 79.0426C45.604 79.0426 45.604 79.0425 46.24 79.44C46.876 79.8375 46.876 79.8374 46.8761 79.8373C46.8761 79.8373 46.8762 79.8372 46.8762 79.8372C46.8763 79.837 46.8764 79.8369 46.8765 79.8367C46.8767 79.8364 46.8769 79.836 46.8772 79.8356C46.8777 79.8348 46.8784 79.8337 46.8792 79.8323C46.8809 79.8297 46.8831 79.8261 46.8858 79.8216C46.8913 79.8126 46.899 79.8001 46.9087 79.7841C46.9279 79.7521 46.9551 79.7065 46.9884 79.6489C47.0551 79.5338 47.1469 79.3701 47.2504 79.171C47.4558 78.7761 47.7146 78.2279 47.9115 77.6372L46.4885 77.1628ZM46.24 79.44C46.5754 78.7692 46.5753 78.7691 46.5751 78.769C46.575 78.769 46.5748 78.7689 46.5747 78.7688C46.5744 78.7687 46.5741 78.7685 46.5737 78.7683C46.5729 78.7679 46.5719 78.7674 46.5708 78.7669C46.5685 78.7657 46.5654 78.7642 46.5616 78.7623C46.554 78.7586 46.5433 78.7534 46.5298 78.7469C46.5027 78.7338 46.464 78.7154 46.4143 78.6924C46.3149 78.6464 46.1715 78.5819 45.9895 78.5052C45.6258 78.3518 45.1061 78.1487 44.4742 77.9459C43.2164 77.5421 41.4849 77.13 39.64 77.13V78.63C41.2751 78.63 42.8436 78.9979 44.0158 79.3741C44.5989 79.5613 45.0767 79.7482 45.4067 79.8873C45.5716 79.9568 45.6991 80.0142 45.784 80.0535C45.8264 80.0732 45.8581 80.0883 45.8784 80.0981C45.8886 80.103 45.8959 80.1066 45.9003 80.1087C45.9025 80.1098 45.904 80.1105 45.9047 80.1109C45.905 80.111 45.9052 80.1111 45.9052 80.1111C45.9052 80.1111 45.9051 80.1111 45.905 80.111C45.905 80.111 45.9049 80.111 45.9048 80.1109C45.9047 80.1109 45.9046 80.1108 46.24 79.44ZM39.64 77.13C38.6164 77.13 37.7073 77.3342 37.04 77.8176C36.3346 78.3287 35.9834 79.0924 36.0103 79.9827L37.5097 79.9373C37.4966 79.5075 37.6454 79.2313 37.92 79.0324C38.2327 78.8058 38.7836 78.63 39.64 78.63V77.13ZM36.0119 80.0134C36.0701 80.8276 36.4612 81.4201 37.1071 81.8461C37.692 82.2319 38.4936 82.4865 39.4107 82.7257L39.7893 81.2743C38.8664 81.0335 38.288 80.8281 37.9329 80.5939C37.6388 80.3999 37.5299 80.2124 37.5081 79.9066L36.0119 80.0134ZM39.4027 82.7236L42.0427 83.4436L42.4373 81.9964L39.7973 81.2764L39.4027 82.7236ZM42.0478 83.4449C44.5931 84.1198 46.1358 85.0875 47.0703 86.2019C48.0002 87.3108 48.3976 88.6479 48.4914 90.2051L49.9886 90.1149C49.8825 88.3521 49.4198 86.6692 48.2197 85.2381C47.0242 83.8125 45.1669 82.7202 42.4322 81.9951L42.0478 83.4449ZM48.4916 90.2089C48.6759 93.029 47.6368 95.0962 45.8586 96.4837C44.0497 97.8952 41.4106 98.65 38.36 98.65V100.15C41.6294 100.15 44.6303 99.3448 46.7814 97.6663C48.9632 95.9638 50.2041 93.411 49.9884 90.1111L48.4916 90.2089ZM38.36 98.65C35.7209 98.65 33.0474 98.0631 32.134 97.7343L31.626 99.1457C32.7126 99.5369 35.5591 100.15 38.36 100.15V98.65ZM58.8263 94.92L58.077 94.8868L58.0766 94.8949L58.0764 94.903L58.8263 94.92ZM59.1063 76.4L58.3564 76.4153L58.3566 76.4227L59.1063 76.4ZM67.6263 75.84L68.3753 75.8775L68.3755 75.8741L67.6263 75.84ZM67.4263 82.76L66.6763 82.7506L66.6668 83.51H67.4263V82.76ZM76.0263 82.76V83.51H76.7666L76.7762 82.7697L76.0263 82.76ZM76.0662 76.4H76.8162V76.3923L76.8161 76.3847L76.0662 76.4ZM84.5863 75.84L85.3358 75.8706L85.3361 75.857L84.5863 75.84ZM84.2663 94.4L85.0149 94.3542L85.0144 94.3473L84.2663 94.4ZM75.7463 94.92L74.9972 94.8825L74.9967 94.8927L74.9964 94.903L75.7463 94.92ZM75.9063 88.4H76.6563V87.65H75.9063V88.4ZM67.2663 88.4V87.65H66.5163V88.4H67.2663ZM67.3463 94.4L68.0948 94.3542L68.0942 94.3431L68.0932 94.3321L67.3463 94.4ZM59.5755 94.9532C59.7761 90.4209 59.8966 77.7213 59.8559 76.3773L58.3566 76.4227C58.3959 77.7187 58.2764 90.3791 58.077 94.8868L59.5755 94.9532ZM59.8561 76.3847C59.8456 75.8685 59.7694 75.2605 59.7327 74.7954C59.6923 74.2831 59.6896 73.8674 59.7668 73.5345C59.8375 73.23 59.9672 73.0238 60.2007 72.8723C60.4605 72.7038 60.9318 72.55 61.7863 72.55V71.05C60.7808 71.05 59.982 71.2262 59.3843 71.6139C58.7603 72.0187 58.445 72.595 58.3057 73.1955C58.1729 73.7676 58.1952 74.3794 58.2373 74.9133C58.2831 75.4945 58.3469 75.9515 58.3564 76.4153L59.8561 76.3847ZM61.7863 72.55H64.8663V71.05H61.7863V72.55ZM64.8663 72.55C65.4656 72.55 65.8492 72.6717 66.1 72.8244C66.3452 72.9736 66.517 73.1849 66.6405 73.4638C66.9091 74.0699 66.9179 74.9069 66.877 75.8059L68.3755 75.8741C68.4146 75.0131 68.4434 73.8301 68.012 72.8562C67.7855 72.3451 67.4273 71.8764 66.88 71.5431C66.3383 71.2133 65.6669 71.05 64.8663 71.05V72.55ZM66.8772 75.8025C66.8368 76.6106 66.7164 79.54 66.6763 82.7506L68.1762 82.7694C68.2161 79.58 68.3357 76.6694 68.3753 75.8775L66.8772 75.8025ZM67.4263 83.51H76.0263V82.01H67.4263V83.51ZM76.7762 82.7697C76.8163 79.6848 76.8162 77.201 76.8162 76.4H75.3162C75.3162 77.199 75.3162 79.6752 75.2763 82.7503L76.7762 82.7697ZM76.8161 76.3847C76.8055 75.8675 76.7293 75.2612 76.692 74.7945C76.6509 74.2817 76.647 73.8649 76.7227 73.5307C76.7921 73.2242 76.9202 73.0193 77.1476 72.8699C77.4007 72.7035 77.8628 72.55 78.7062 72.55V71.05C77.7097 71.05 76.9168 71.2265 76.3237 71.6164C75.7048 72.0232 75.3954 72.6008 75.2598 73.1993C75.1305 73.7701 75.1541 74.3808 75.1968 74.9142C75.2432 75.4938 75.307 75.9525 75.3164 76.4153L76.8161 76.3847ZM78.7062 72.55H81.8263V71.05H78.7062V72.55ZM81.8263 72.55C82.4136 72.55 82.7885 72.6709 83.0339 72.8221C83.2745 72.9705 83.4457 73.1819 83.5705 73.4638C83.8419 74.0763 83.8571 74.9162 83.8364 75.823L85.3361 75.857C85.3554 75.0038 85.3706 73.8237 84.942 72.8562C84.7169 72.3481 84.363 71.8795 83.8211 71.5454C83.284 71.2141 82.6189 71.05 81.8263 71.05V72.55ZM83.8369 75.8094C83.7966 76.7951 83.6665 80.7297 83.5715 84.7724C83.4769 88.7933 83.415 92.9883 83.5181 94.4527L85.0144 94.3473C84.9175 92.9717 84.9756 88.8667 85.071 84.8076C85.166 80.7703 85.2959 76.8449 85.3356 75.8706L83.8369 75.8094ZM83.5177 94.4458C83.5482 94.944 83.6422 95.5695 83.6875 96.0205C83.7386 96.5294 83.7468 96.9434 83.6739 97.2732C83.6074 97.5743 83.4806 97.778 83.2498 97.9282C82.9918 98.0961 82.5211 98.25 81.6663 98.25V99.75C82.6714 99.75 83.4708 99.5739 84.0678 99.1855C84.6919 98.7795 85.0051 98.2007 85.1386 97.5968C85.2657 97.0216 85.2339 96.4081 85.18 95.8707C85.1203 95.2755 85.0443 94.836 85.0149 94.3542L83.5177 94.4458ZM81.6663 98.25H78.5863V99.75H81.6663V98.25ZM78.5863 98.25C77.9775 98.25 77.5862 98.1261 77.3287 97.9694C77.0764 97.8158 76.8989 97.5982 76.7702 97.3122C76.4908 96.6914 76.4755 95.8435 76.4961 94.937L74.9964 94.903C74.977 95.7565 74.9617 96.9486 75.4023 97.9278C75.6336 98.4418 75.9961 98.9142 76.5488 99.2506C77.0963 99.5839 77.775 99.75 78.5863 99.75V98.25ZM76.4953 94.9575C76.5758 93.3468 76.6563 90.8942 76.6563 88.4H75.1563C75.1563 90.8658 75.0767 93.2932 74.9972 94.8825L76.4953 94.9575ZM75.9063 87.65H67.2663V89.15H75.9063V87.65ZM66.5163 88.4C66.5163 91.0526 66.5153 93.5437 66.5993 94.4679L68.0932 94.3321C68.0172 93.4963 68.0163 91.1074 68.0163 88.4H66.5163ZM66.5977 94.4458C66.6275 94.9338 66.7195 95.5732 66.7607 96.0152C66.808 96.5224 66.8121 96.936 66.7357 97.2655C66.6657 97.5669 66.5353 97.7739 66.2985 97.9266C66.0354 98.0963 65.5606 98.25 64.7062 98.25V99.75C65.7119 99.75 66.5121 99.5737 67.1115 99.1872C67.7372 98.7836 68.0568 98.2081 68.1968 97.6045C68.3304 97.029 68.3045 96.4151 68.2543 95.876C68.198 95.2718 68.125 94.8462 68.0948 94.3542L66.5977 94.4458ZM64.7062 98.25H61.6263V99.75H64.7062V98.25ZM61.6263 98.25C61.0293 98.25 60.6469 98.1268 60.3958 97.9718C60.1493 97.8196 59.9742 97.603 59.8468 97.3158C59.5705 96.6932 59.5555 95.8431 59.5761 94.937L58.0764 94.903C58.057 95.7569 58.042 96.9468 58.4757 97.9242C58.7033 98.437 59.0607 98.9104 59.6079 99.2482C60.1506 99.5832 60.8232 99.75 61.6263 99.75V98.25ZM94.2372 85.4L93.4873 85.3848L93.4873 85.3887L94.2372 85.4ZM119.477 85.4L120.227 85.4151L120.227 85.4114L119.477 85.4ZM110.997 85.36H110.247L110.247 85.3682L110.997 85.36ZM102.597 85.36L101.847 85.3679L101.847 85.3761L102.597 85.36ZM94.987 85.4152C95.0648 81.584 96.0562 78.265 97.9685 75.9189C99.8616 73.5964 102.719 72.15 106.717 72.15V70.65C102.316 70.65 99.0128 72.2636 96.8058 74.9711C94.6182 77.655 93.5695 81.336 93.4873 85.3848L94.987 85.4152ZM106.717 72.15C110.681 72.15 113.685 73.5909 115.694 75.9199C117.714 78.2618 118.785 81.5702 118.727 85.3886L120.227 85.4114C120.289 81.3098 119.14 77.6182 116.83 74.9401C114.509 72.2491 111.074 70.65 106.717 70.65V72.15ZM118.727 85.3849C118.65 89.2302 117.621 92.5496 115.689 94.8928C113.774 97.2148 110.914 98.65 106.997 98.65V100.15C111.321 100.15 114.621 98.5452 116.846 95.8472C119.053 93.1704 120.145 89.4898 120.227 85.4151L118.727 85.3849ZM106.997 98.65C102.949 98.65 99.9473 97.2158 97.9619 94.8972C95.9639 92.5639 94.9291 89.257 94.9871 85.4113L93.4873 85.3887C93.4252 89.503 94.5305 93.1961 96.8225 95.8728C99.1271 98.5642 102.566 100.15 106.997 100.15V98.65ZM106.837 93.35C107.85 93.35 108.708 93.0915 109.408 92.6004C110.103 92.1131 110.594 91.4323 110.937 90.6667C111.611 89.1609 111.767 87.2131 111.747 85.3518L110.247 85.3682C110.267 87.1869 110.103 88.8591 109.568 90.0533C109.306 90.6377 108.968 91.0769 108.547 91.3721C108.132 91.6635 107.584 91.85 106.837 91.85V93.35ZM111.747 85.36C111.747 83.434 111.549 81.5057 110.856 80.0352C110.503 79.2878 110.011 78.6321 109.328 78.1653C108.64 77.6951 107.808 77.45 106.837 77.45V78.95C107.546 78.95 108.074 79.1249 108.481 79.4035C108.894 79.6854 109.231 80.1072 109.499 80.6748C110.045 81.8343 110.247 83.486 110.247 85.36H111.747ZM106.837 77.45C105.833 77.45 104.977 77.6914 104.27 78.159C103.567 78.6245 103.062 79.2812 102.705 80.033C102.003 81.5095 101.827 83.4439 101.847 85.3679L103.347 85.3521C103.327 83.4761 103.511 81.8305 104.06 80.6769C104.327 80.1138 104.67 79.693 105.098 79.4098C105.523 79.1286 106.081 78.95 106.837 78.95V77.45ZM101.847 85.3761C101.888 87.252 102.087 89.1949 102.776 90.689C103.126 91.4483 103.616 92.1227 104.304 92.6056C104.997 93.0929 105.842 93.35 106.837 93.35V91.85C106.112 91.85 105.577 91.6671 105.166 91.3782C104.748 91.0848 104.408 90.6467 104.138 90.061C103.587 88.8651 103.387 87.188 103.347 85.3439L101.847 85.3761ZM129.188 94.92L128.439 94.8935L128.438 94.903L129.188 94.92ZM129.428 76.4L128.678 76.4153L128.678 76.4227L129.428 76.4ZM151.188 81.36L150.439 81.3274L150.439 81.3324L151.188 81.36ZM137.628 91.04V90.29H136.878V91.04H137.628ZM137.668 94.4L138.417 94.3542L138.416 94.3459L138.416 94.3377L137.668 94.4ZM137.468 85.64L136.718 85.6268L136.705 86.39H137.468V85.64ZM143.268 81.68L142.519 81.6399L142.518 81.6534L142.518 81.6668L143.268 81.68ZM137.668 77.56V76.81H136.968L136.92 77.509L137.668 77.56ZM129.938 94.9465C130.098 90.4203 130.219 77.7215 130.178 76.3773L128.678 76.4227C128.718 77.7185 128.598 90.3797 128.439 94.8935L129.938 94.9465ZM130.178 76.3847C130.167 75.8685 130.091 75.2605 130.055 74.7954C130.014 74.2831 130.011 73.8674 130.089 73.5345C130.159 73.23 130.289 73.0238 130.523 72.8723C130.782 72.7038 131.254 72.55 132.108 72.55V71.05C131.103 71.05 130.304 71.2262 129.706 71.6139C129.082 72.0187 128.767 72.595 128.628 73.1955C128.495 73.7676 128.517 74.3794 128.559 74.9133C128.605 75.4945 128.669 75.9515 128.678 76.4153L130.178 76.3847ZM132.108 72.55H140.348V71.05H132.108V72.55ZM140.348 72.55C143.791 72.55 146.362 73.5201 148.035 75.0616C149.699 76.595 150.55 78.762 150.439 81.3274L151.937 81.3926C152.066 78.438 151.077 75.825 149.051 73.9584C147.034 72.0999 144.065 71.05 140.348 71.05V72.55ZM150.439 81.3324C150.344 83.9105 149.514 86.1347 147.946 87.7112C146.385 89.2815 144.012 90.29 140.668 90.29V91.79C144.324 91.79 147.111 90.6785 149.01 88.7688C150.903 86.8653 151.832 84.2495 151.938 81.3876L150.439 81.3324ZM140.668 90.29H137.628V91.79H140.668V90.29ZM136.878 91.04C136.878 92.0531 136.877 93.9415 136.921 94.4623L138.416 94.3377C138.379 93.8985 138.378 92.1069 138.378 91.04H136.878ZM136.92 94.4458C136.95 94.9363 137.041 95.571 137.083 96.0161C137.131 96.5238 137.137 96.9385 137.062 97.2693C136.993 97.5726 136.864 97.7783 136.633 97.929C136.377 98.0966 135.911 98.25 135.068 98.25V99.75C136.065 99.75 136.859 99.5734 137.454 99.1847C138.075 98.7792 138.388 98.2024 138.525 97.6007C138.655 97.0265 138.628 96.4137 138.577 95.8751C138.52 95.274 138.447 94.8437 138.417 94.3542L136.92 94.4458ZM135.068 98.25H131.988V99.75H135.068V98.25ZM131.988 98.25C131.391 98.25 131.009 98.1268 130.758 97.9718C130.511 97.8196 130.336 97.603 130.209 97.3158C129.932 96.6932 129.917 95.8431 129.938 94.937L128.438 94.903C128.419 95.7569 128.404 96.9468 128.838 97.9242C129.065 98.437 129.423 98.9104 129.97 99.2482C130.512 99.5832 131.185 99.75 131.988 99.75V98.25ZM137.468 86.39H139.188V84.89H137.468V86.39ZM139.188 86.39C140.845 86.39 142.089 85.9284 142.91 85.0169C143.716 84.1226 143.996 82.923 144.018 81.6932L142.518 81.6668C142.5 82.717 142.26 83.4974 141.796 84.0131C141.347 84.5116 140.571 84.89 139.188 84.89V86.39ZM144.017 81.7201C144.082 80.5052 143.874 79.2654 143.128 78.3163C142.359 77.3388 141.131 76.81 139.468 76.81V78.31C140.805 78.31 141.538 78.7212 141.949 79.2437C142.382 79.7946 142.574 80.6148 142.519 81.6399L144.017 81.7201ZM139.468 76.81H137.668V78.31H139.468V76.81ZM136.92 77.509C136.798 79.2941 136.758 83.3677 136.718 85.6268L138.218 85.6532C138.258 83.3523 138.298 79.3459 138.416 77.611L136.92 77.509Z" fill="#DB9362"/>
<path d="M49.76 52.92C49.92 48.4 50.04 35.72 50 34.4C49.96 32.44 48.96 29.8 52.68 29.8H60.92C68.08 29.8 72 33.84 71.76 39.36C71.56 44.8 68.24 49.04 61.24 49.04H58.2C58.2 50.08 58.2 51.92 58.24 52.4C58.36 54.36 59.32 57 55.64 57H52.56C49.76 57 49.72 54.68 49.76 52.92ZM58.04 43.64H59.76C62.8 43.64 63.8 41.96 63.84 39.68C63.96 37.44 63.04 35.56 60.04 35.56H58.24C58.12 37.32 58.08 41.36 58.04 43.64ZM81.25 52.92C81.41 48.4 81.49 35.72 81.45 34.4C81.41 32.44 80.41 29.8 84.13 29.8H97.37C99.49 29.8 99.81 30.76 99.81 32.24V34.24C99.85 35.8 98.93 36.44 97.21 36.4C95.53 36.36 92.61 36.36 89.77 36.36V40.6C92.01 40.6 94.97 40.6 95.85 40.56C96.93 40.52 97.85 41.04 97.85 42.36V44.36C97.85 45.92 97.41 46.16 96.05 46.2C94.93 46.2 91.89 46.16 89.65 46.2C89.61 47.84 89.61 49.2 89.65 50.52C92.25 50.52 96.05 50.48 97.33 50.4C99.09 50.28 99.85 51.04 99.85 52.6V55.16C99.85 56.68 99.49 57 97.37 57H84.05C81.25 57 81.21 54.68 81.25 52.92ZM114.526 52.96C114.646 51.28 114.966 40.92 114.926 36.36C113.646 36.36 111.006 36.36 110.166 36.44C108.446 36.6 107.886 35.8 107.926 34.24L107.966 31.64C107.966 30.16 108.286 29.8 110.446 29.8C110.446 29.8 124.886 29.92 128.366 29.68C130.126 29.6 130.566 30.56 130.526 32.12L130.486 34.56C130.446 36.04 130.166 36.4 128.006 36.4H123.286C123.086 41.92 123.046 51.28 123.046 52.4C123.086 54.36 124.126 57 120.446 57H117.366C114.566 57 114.486 54.72 114.526 52.96Z" fill="#DB9362"/>
</svg>
