<svg width="831" height="203" viewBox="0 0 831 203" fill="none" xmlns="http://www.w3.org/2000/svg">
<rect x="500" width="331" height="203" fill="#DB9362"/>
<path d="M655.88 105.44L656.134 104.734L656.129 104.733L655.88 105.44ZM653.64 100.56L654.353 100.794L654.361 100.768L654.368 100.742L653.64 100.56ZM654.8 98.2L655.189 97.5585L654.648 97.2314L654.234 97.7079L654.8 98.2ZM664.84 97.84L665.59 97.8158L665.589 97.8002L665.588 97.7846L664.84 97.84ZM661.52 95.44L661.702 94.7124L661.699 94.7117L661.52 95.44ZM659.08 94.84L659.259 94.1117L659.258 94.1115L659.08 94.84ZM652.68 87.68L653.429 87.6388L653.429 87.6342L652.68 87.68ZM669.56 79.48L669.258 80.1665L669.271 80.1721L669.284 80.1773L669.56 79.48ZM671.2 84.4L671.912 84.6372L671.914 84.6305L671.916 84.6237L671.2 84.4ZM670.24 86.44L669.905 87.1108L670.515 87.4158L670.876 86.8375L670.24 86.44ZM660.76 86.96L660.01 86.9827L660.011 86.9981L660.012 87.0134L660.76 86.96ZM663.6 89L663.797 88.2764L663.789 88.2743L663.6 89ZM666.24 89.72L666.043 90.4436L666.048 90.4449L666.24 89.72ZM673.24 97.16L672.491 97.2051L672.492 97.2089L673.24 97.16ZM656.129 104.733C654.767 104.253 654.262 103.772 654.076 103.306C653.875 102.803 653.935 102.066 654.353 100.794L652.927 100.326C652.505 101.614 652.265 102.817 652.684 103.864C653.118 104.948 654.153 105.627 655.631 106.147L656.129 104.733ZM654.368 100.742C654.526 100.11 654.781 99.5887 654.999 99.2247C655.107 99.0436 655.204 98.9043 655.272 98.8129C655.306 98.7673 655.332 98.7339 655.349 98.7134C655.357 98.7032 655.363 98.6963 655.366 98.6927C655.367 98.6909 655.368 98.6899 655.368 98.6898C655.368 98.6898 655.368 98.69 655.368 98.6903C655.367 98.6905 655.367 98.6908 655.367 98.6911C655.367 98.6912 655.367 98.6914 655.366 98.6916C655.366 98.6917 655.366 98.6918 655.366 98.6918C655.366 98.692 655.366 98.6921 654.8 98.2C654.234 97.7079 654.234 97.708 654.234 97.7082C654.234 97.7082 654.234 97.7084 654.233 97.7085C654.233 97.7088 654.233 97.709 654.233 97.7093C654.232 97.7098 654.232 97.7104 654.231 97.711C654.23 97.7123 654.229 97.7138 654.227 97.7155C654.224 97.719 654.221 97.7234 654.216 97.7287C654.207 97.7393 654.196 97.7535 654.181 97.7712C654.153 97.8067 654.114 97.8564 654.067 97.9196C653.973 98.0457 653.848 98.2264 653.711 98.4553C653.439 98.9113 653.114 99.5697 652.912 100.378L654.368 100.742ZM654.8 98.2C654.411 98.8415 654.412 98.8417 654.412 98.8418C654.412 98.8419 654.412 98.842 654.412 98.8421C654.413 98.8423 654.413 98.8426 654.414 98.8429C654.415 98.8434 654.416 98.8441 654.417 98.8448C654.419 98.8463 654.423 98.8483 654.427 98.8506C654.434 98.8552 654.445 98.8614 654.458 98.8691C654.485 98.8845 654.523 98.9058 654.571 98.9321C654.667 98.9848 654.806 99.0577 654.985 99.1441C655.342 99.3167 655.86 99.5435 656.516 99.7692C657.828 100.22 659.701 100.67 661.96 100.67V99.17C659.899 99.17 658.192 98.7596 657.004 98.3508C656.41 98.1465 655.948 97.9433 655.638 97.7934C655.483 97.7185 655.366 97.6571 655.29 97.6157C655.252 97.595 655.225 97.5794 655.207 97.5695C655.199 97.5646 655.193 97.5612 655.19 97.5593C655.188 97.5584 655.187 97.5578 655.187 97.5577C655.187 97.5576 655.187 97.5576 655.187 97.5578C655.187 97.5578 655.188 97.5579 655.188 97.558C655.188 97.5581 655.188 97.5582 655.188 97.5582C655.188 97.5584 655.189 97.5585 654.8 98.2ZM661.96 100.67C662.965 100.67 663.866 100.437 664.532 99.9508C665.221 99.448 665.618 98.6978 665.59 97.8158L664.09 97.8642C664.102 98.2222 663.959 98.512 663.648 98.7392C663.314 98.9833 662.755 99.17 661.96 99.17V100.67ZM665.588 97.7846C665.531 97.02 665.186 96.3747 664.5 95.86C663.858 95.3787 662.931 95.0196 661.702 94.7124L661.338 96.1676C662.509 96.4604 663.202 96.7613 663.6 97.06C663.954 97.3253 664.069 97.58 664.092 97.8954L665.588 97.7846ZM661.699 94.7117L659.259 94.1117L658.901 95.5683L661.341 96.1683L661.699 94.7117ZM659.258 94.1115C657.447 93.6682 656.06 93.0154 655.097 92.0269C654.15 91.0538 653.541 89.6796 653.429 87.6388L651.931 87.7212C652.059 90.0404 652.77 91.7862 654.023 93.0731C655.26 94.3446 656.953 95.0918 658.902 95.5685L659.258 94.1115ZM653.429 87.6342C653.262 84.9102 654.2 82.823 655.841 81.4019C657.501 79.9642 659.95 79.15 662.88 79.15V77.65C659.69 77.65 656.859 78.5358 654.859 80.2681C652.84 82.017 651.738 84.5698 651.931 87.7258L653.429 87.6342ZM662.88 79.15C665.882 79.15 668.374 79.7777 669.258 80.1665L669.862 78.7935C668.746 78.3023 666.038 77.65 662.88 77.65V79.15ZM669.284 80.1773C670.321 80.5884 670.698 80.9168 670.847 81.3167C671.019 81.7794 670.985 82.5738 670.484 84.1763L671.916 84.6237C672.415 83.0262 672.621 81.7806 672.253 80.7933C671.862 79.7432 670.919 79.2116 669.836 78.7827L669.284 80.1773ZM670.488 84.1628C670.325 84.6521 670.104 85.1239 669.92 85.479C669.828 85.6549 669.747 85.7987 669.69 85.8973C669.662 85.9466 669.639 85.9844 669.624 86.0092C669.617 86.0216 669.611 86.0307 669.608 86.0363C669.606 86.0391 669.605 86.0411 669.604 86.0421C669.604 86.0426 669.604 86.0429 669.604 86.043C669.604 86.043 669.604 86.043 669.604 86.0429C669.604 86.0429 669.604 86.0428 669.604 86.0427C669.604 86.0427 669.604 86.0427 669.604 86.0426C669.604 86.0426 669.604 86.0425 670.24 86.44C670.876 86.8375 670.876 86.8374 670.876 86.8373C670.876 86.8373 670.876 86.8372 670.876 86.8372C670.876 86.837 670.876 86.8369 670.876 86.8367C670.877 86.8364 670.877 86.836 670.877 86.8356C670.878 86.8348 670.878 86.8337 670.879 86.8323C670.881 86.8297 670.883 86.8261 670.886 86.8216C670.891 86.8126 670.899 86.8001 670.909 86.7841C670.928 86.7521 670.955 86.7065 670.988 86.6489C671.055 86.5338 671.147 86.3701 671.25 86.171C671.456 85.7761 671.715 85.2279 671.912 84.6372L670.488 84.1628ZM670.24 86.44C670.575 85.7692 670.575 85.7691 670.575 85.769C670.575 85.769 670.575 85.7689 670.575 85.7688C670.574 85.7687 670.574 85.7685 670.574 85.7683C670.573 85.7679 670.572 85.7674 670.571 85.7669C670.568 85.7657 670.565 85.7642 670.562 85.7623C670.554 85.7586 670.543 85.7534 670.53 85.7469C670.503 85.7338 670.464 85.7154 670.414 85.6924C670.315 85.6464 670.172 85.5819 669.99 85.5052C669.626 85.3518 669.106 85.1487 668.474 84.9459C667.216 84.5421 665.485 84.13 663.64 84.13V85.63C665.275 85.63 666.844 85.9979 668.016 86.3741C668.599 86.5613 669.077 86.7482 669.407 86.8873C669.572 86.9568 669.699 87.0142 669.784 87.0535C669.826 87.0732 669.858 87.0883 669.878 87.0981C669.889 87.103 669.896 87.1066 669.9 87.1087C669.902 87.1098 669.904 87.1105 669.905 87.1109C669.905 87.111 669.905 87.1111 669.905 87.1111C669.905 87.1111 669.905 87.1111 669.905 87.111C669.905 87.111 669.905 87.111 669.905 87.1109C669.905 87.1109 669.905 87.1108 670.24 86.44ZM663.64 84.13C662.616 84.13 661.707 84.3342 661.04 84.8176C660.335 85.3287 659.983 86.0924 660.01 86.9827L661.51 86.9373C661.497 86.5075 661.645 86.2313 661.92 86.0324C662.233 85.8058 662.784 85.63 663.64 85.63V84.13ZM660.012 87.0134C660.07 87.8276 660.461 88.4201 661.107 88.8461C661.692 89.2319 662.494 89.4865 663.411 89.7257L663.789 88.2743C662.866 88.0335 662.288 87.8281 661.933 87.5939C661.639 87.3999 661.53 87.2124 661.508 86.9066L660.012 87.0134ZM663.403 89.7236L666.043 90.4436L666.437 88.9964L663.797 88.2764L663.403 89.7236ZM666.048 90.4449C668.593 91.1198 670.136 92.0875 671.07 93.2019C672 94.3108 672.398 95.6479 672.491 97.2051L673.989 97.1149C673.882 95.3521 673.42 93.6692 672.22 92.2381C671.024 90.8125 669.167 89.7202 666.432 88.9951L666.048 90.4449ZM672.492 97.2089C672.676 100.029 671.637 102.096 669.859 103.484C668.05 104.895 665.411 105.65 662.36 105.65V107.15C665.629 107.15 668.63 106.345 670.781 104.666C672.963 102.964 674.204 100.411 673.988 97.1111L672.492 97.2089ZM662.36 105.65C659.721 105.65 657.047 105.063 656.134 104.734L655.626 106.146C656.713 106.537 659.559 107.15 662.36 107.15V105.65ZM682.826 101.92L682.077 101.887L682.077 101.895L682.076 101.903L682.826 101.92ZM683.106 83.4L682.356 83.4153L682.357 83.4227L683.106 83.4ZM691.626 82.84L692.375 82.8775L692.375 82.8741L691.626 82.84ZM691.426 89.76L690.676 89.7506L690.667 90.51H691.426V89.76ZM700.026 89.76V90.51H700.767L700.776 89.7697L700.026 89.76ZM700.066 83.4H700.816V83.3923L700.816 83.3847L700.066 83.4ZM708.586 82.84L709.336 82.8706L709.336 82.857L708.586 82.84ZM708.266 101.4L709.015 101.354L709.014 101.347L708.266 101.4ZM699.746 101.92L698.997 101.883L698.997 101.893L698.996 101.903L699.746 101.92ZM699.906 95.4H700.656V94.65H699.906V95.4ZM691.266 95.4V94.65H690.516V95.4H691.266ZM691.346 101.4L692.095 101.354L692.094 101.343L692.093 101.332L691.346 101.4ZM683.576 101.953C683.776 97.4209 683.897 84.7213 683.856 83.3773L682.357 83.4227C682.396 84.7187 682.276 97.3791 682.077 101.887L683.576 101.953ZM683.856 83.3847C683.846 82.8685 683.769 82.2605 683.733 81.7954C683.692 81.2831 683.69 80.8674 683.767 80.5345C683.838 80.23 683.967 80.0238 684.201 79.8723C684.46 79.7038 684.932 79.55 685.786 79.55V78.05C684.781 78.05 683.982 78.2262 683.384 78.6139C682.76 79.0187 682.445 79.595 682.306 80.1955C682.173 80.7676 682.195 81.3794 682.237 81.9133C682.283 82.4945 682.347 82.9515 682.356 83.4153L683.856 83.3847ZM685.786 79.55H688.866V78.05H685.786V79.55ZM688.866 79.55C689.466 79.55 689.849 79.6717 690.1 79.8244C690.345 79.9736 690.517 80.1849 690.641 80.4638C690.909 81.0699 690.918 81.9069 690.877 82.8059L692.375 82.8741C692.415 82.0131 692.443 80.8301 692.012 79.8562C691.786 79.3451 691.427 78.8764 690.88 78.5431C690.338 78.2133 689.667 78.05 688.866 78.05V79.55ZM690.877 82.8025C690.837 83.6106 690.716 86.54 690.676 89.7506L692.176 89.7694C692.216 86.58 692.336 83.6694 692.375 82.8775L690.877 82.8025ZM691.426 90.51H700.026V89.01H691.426V90.51ZM700.776 89.7697C700.816 86.6848 700.816 84.201 700.816 83.4H699.316C699.316 84.199 699.316 86.6752 699.276 89.7503L700.776 89.7697ZM700.816 83.3847C700.806 82.8675 700.729 82.2612 700.692 81.7945C700.651 81.2817 700.647 80.8649 700.723 80.5307C700.792 80.2242 700.92 80.0193 701.148 79.8699C701.401 79.7035 701.863 79.55 702.706 79.55V78.05C701.71 78.05 700.917 78.2265 700.324 78.6164C699.705 79.0232 699.395 79.6008 699.26 80.1993C699.13 80.7701 699.154 81.3808 699.197 81.9142C699.243 82.4938 699.307 82.9525 699.316 83.4153L700.816 83.3847ZM702.706 79.55H705.826V78.05H702.706V79.55ZM705.826 79.55C706.414 79.55 706.789 79.6709 707.034 79.8221C707.274 79.9705 707.446 80.1819 707.571 80.4638C707.842 81.0763 707.857 81.9162 707.836 82.823L709.336 82.857C709.355 82.0038 709.371 80.8237 708.942 79.8562C708.717 79.3481 708.363 78.8795 707.821 78.5454C707.284 78.2141 706.619 78.05 705.826 78.05V79.55ZM707.837 82.8094C707.797 83.7951 707.667 87.7297 707.571 91.7724C707.477 95.7933 707.415 99.9883 707.518 101.453L709.014 101.347C708.918 99.9717 708.976 95.8667 709.071 91.8076C709.166 87.7703 709.296 83.8449 709.336 82.8706L707.837 82.8094ZM707.518 101.446C707.548 101.944 707.642 102.569 707.688 103.021C707.739 103.529 707.747 103.943 707.674 104.273C707.607 104.574 707.481 104.778 707.25 104.928C706.992 105.096 706.521 105.25 705.666 105.25V106.75C706.671 106.75 707.471 106.574 708.068 106.186C708.692 105.779 709.005 105.201 709.139 104.597C709.266 104.022 709.234 103.408 709.18 102.871C709.12 102.276 709.044 101.836 709.015 101.354L707.518 101.446ZM705.666 105.25H702.586V106.75H705.666V105.25ZM702.586 105.25C701.978 105.25 701.586 105.126 701.329 104.969C701.076 104.816 700.899 104.598 700.77 104.312C700.491 103.691 700.475 102.843 700.496 101.937L698.996 101.903C698.977 102.757 698.962 103.949 699.402 104.928C699.634 105.442 699.996 105.914 700.549 106.251C701.096 106.584 701.775 106.75 702.586 106.75V105.25ZM700.495 101.957C700.576 100.347 700.656 97.8942 700.656 95.4H699.156C699.156 97.8658 699.077 100.293 698.997 101.883L700.495 101.957ZM699.906 94.65H691.266V96.15H699.906V94.65ZM690.516 95.4C690.516 98.0526 690.515 100.544 690.599 101.468L692.093 101.332C692.017 100.496 692.016 98.1074 692.016 95.4H690.516ZM690.598 101.446C690.628 101.934 690.72 102.573 690.761 103.015C690.808 103.522 690.812 103.936 690.736 104.265C690.666 104.567 690.535 104.774 690.299 104.927C690.035 105.096 689.561 105.25 688.706 105.25V106.75C689.712 106.75 690.512 106.574 691.111 106.187C691.737 105.784 692.057 105.208 692.197 104.605C692.33 104.029 692.305 103.415 692.254 102.876C692.198 102.272 692.125 101.846 692.095 101.354L690.598 101.446ZM688.706 105.25H685.626V106.75H688.706V105.25ZM685.626 105.25C685.029 105.25 684.647 105.127 684.396 104.972C684.149 104.82 683.974 104.603 683.847 104.316C683.571 103.693 683.555 102.843 683.576 101.937L682.076 101.903C682.057 102.757 682.042 103.947 682.476 104.924C682.703 105.437 683.061 105.91 683.608 106.248C684.151 106.583 684.823 106.75 685.626 106.75V105.25ZM718.237 92.4L717.487 92.3848L717.487 92.3887L718.237 92.4ZM743.477 92.4L744.227 92.4151L744.227 92.4114L743.477 92.4ZM734.997 92.36H734.247L734.247 92.3682L734.997 92.36ZM726.597 92.36L725.847 92.3679L725.847 92.3761L726.597 92.36ZM718.987 92.4152C719.065 88.584 720.056 85.265 721.969 82.9189C723.862 80.5964 726.719 79.15 730.717 79.15V77.65C726.316 77.65 723.013 79.2636 720.806 81.9711C718.618 84.655 717.57 88.336 717.487 92.3848L718.987 92.4152ZM730.717 79.15C734.681 79.15 737.685 80.5909 739.694 82.9199C741.714 85.2618 742.785 88.5702 742.727 92.3886L744.227 92.4114C744.289 88.3098 743.14 84.6182 740.83 81.9401C738.509 79.2491 735.074 77.65 730.717 77.65V79.15ZM742.727 92.3849C742.65 96.2302 741.621 99.5496 739.689 101.893C737.774 104.215 734.914 105.65 730.997 105.65V107.15C735.321 107.15 738.621 105.545 740.846 102.847C743.053 100.17 744.145 96.4898 744.227 92.4151L742.727 92.3849ZM730.997 105.65C726.949 105.65 723.947 104.216 721.962 101.897C719.964 99.5639 718.929 96.257 718.987 92.4113L717.487 92.3887C717.425 96.503 718.53 100.196 720.823 102.873C723.127 105.564 726.566 107.15 730.997 107.15V105.65ZM730.837 100.35C731.85 100.35 732.708 100.092 733.408 99.6004C734.103 99.1131 734.594 98.4323 734.937 97.6667C735.611 96.1609 735.767 94.2131 735.747 92.3518L734.247 92.3682C734.267 94.1869 734.103 95.8591 733.568 97.0533C733.306 97.6377 732.968 98.0769 732.547 98.3721C732.132 98.6635 731.584 98.85 730.837 98.85V100.35ZM735.747 92.36C735.747 90.434 735.549 88.5057 734.856 87.0352C734.503 86.2878 734.011 85.6321 733.328 85.1653C732.64 84.6951 731.808 84.45 730.837 84.45V85.95C731.546 85.95 732.074 86.1249 732.481 86.4035C732.894 86.6854 733.231 87.1072 733.499 87.6748C734.045 88.8343 734.247 90.486 734.247 92.36H735.747ZM730.837 84.45C729.833 84.45 728.977 84.6914 728.27 85.159C727.567 85.6245 727.062 86.2812 726.705 87.033C726.003 88.5095 725.827 90.4439 725.847 92.3679L727.347 92.3521C727.327 90.4761 727.511 88.8305 728.06 87.6769C728.327 87.1138 728.67 86.693 729.098 86.4098C729.523 86.1286 730.081 85.95 730.837 85.95V84.45ZM725.847 92.3761C725.888 94.252 726.087 96.1949 726.776 97.689C727.126 98.4483 727.616 99.1227 728.304 99.6056C728.997 100.093 729.842 100.35 730.837 100.35V98.85C730.112 98.85 729.577 98.6671 729.166 98.3782C728.748 98.0848 728.408 97.6467 728.138 97.061C727.587 95.8651 727.387 94.188 727.347 92.3439L725.847 92.3761ZM753.188 101.92L752.439 101.893L752.438 101.903L753.188 101.92ZM753.428 83.4L752.678 83.4153L752.678 83.4227L753.428 83.4ZM775.188 88.36L774.439 88.3274L774.439 88.3324L775.188 88.36ZM761.628 98.04V97.29H760.878V98.04H761.628ZM761.668 101.4L762.417 101.354L762.416 101.346L762.416 101.338L761.668 101.4ZM761.468 92.64L760.718 92.6268L760.705 93.39H761.468V92.64ZM767.268 88.68L766.519 88.6399L766.518 88.6534L766.518 88.6668L767.268 88.68ZM761.668 84.56V83.81H760.968L760.92 84.509L761.668 84.56ZM753.938 101.947C754.098 97.4203 754.219 84.7215 754.178 83.3773L752.678 83.4227C752.718 84.7185 752.598 97.3797 752.439 101.893L753.938 101.947ZM754.178 83.3847C754.167 82.8685 754.091 82.2605 754.055 81.7954C754.014 81.2831 754.011 80.8674 754.089 80.5345C754.159 80.23 754.289 80.0238 754.523 79.8723C754.782 79.7038 755.254 79.55 756.108 79.55V78.05C755.103 78.05 754.304 78.2262 753.706 78.6139C753.082 79.0187 752.767 79.595 752.628 80.1955C752.495 80.7676 752.517 81.3794 752.559 81.9133C752.605 82.4945 752.669 82.9515 752.678 83.4153L754.178 83.3847ZM756.108 79.55H764.348V78.05H756.108V79.55ZM764.348 79.55C767.791 79.55 770.362 80.5201 772.035 82.0616C773.699 83.595 774.55 85.762 774.439 88.3274L775.937 88.3926C776.066 85.438 775.077 82.825 773.051 80.9584C771.034 79.0999 768.065 78.05 764.348 78.05V79.55ZM774.439 88.3324C774.344 90.9105 773.514 93.1347 771.946 94.7112C770.385 96.2815 768.012 97.29 764.668 97.29V98.79C768.324 98.79 771.111 97.6785 773.01 95.7688C774.903 93.8653 775.832 91.2495 775.938 88.3876L774.439 88.3324ZM764.668 97.29H761.628V98.79H764.668V97.29ZM760.878 98.04C760.878 99.0531 760.877 100.942 760.921 101.462L762.416 101.338C762.379 100.898 762.378 99.1069 762.378 98.04H760.878ZM760.92 101.446C760.95 101.936 761.041 102.571 761.083 103.016C761.131 103.524 761.137 103.939 761.062 104.269C760.993 104.573 760.864 104.778 760.633 104.929C760.377 105.097 759.911 105.25 759.068 105.25V106.75C760.065 106.75 760.859 106.573 761.454 106.185C762.075 105.779 762.388 105.202 762.525 104.601C762.655 104.026 762.628 103.414 762.577 102.875C762.52 102.274 762.447 101.844 762.417 101.354L760.92 101.446ZM759.068 105.25H755.988V106.75H759.068V105.25ZM755.988 105.25C755.391 105.25 755.009 105.127 754.758 104.972C754.511 104.82 754.336 104.603 754.209 104.316C753.932 103.693 753.917 102.843 753.938 101.937L752.438 101.903C752.419 102.757 752.404 103.947 752.838 104.924C753.065 105.437 753.423 105.91 753.97 106.248C754.512 106.583 755.185 106.75 755.988 106.75V105.25ZM761.468 93.39H763.188V91.89H761.468V93.39ZM763.188 93.39C764.845 93.39 766.089 92.9284 766.91 92.0169C767.716 91.1226 767.996 89.923 768.018 88.6932L766.518 88.6668C766.5 89.717 766.26 90.4974 765.796 91.0131C765.347 91.5116 764.571 91.89 763.188 91.89V93.39ZM768.017 88.7201C768.082 87.5052 767.874 86.2654 767.128 85.3163C766.359 84.3388 765.131 83.81 763.468 83.81V85.31C764.805 85.31 765.538 85.7212 765.949 86.2437C766.382 86.7946 766.574 87.6148 766.519 88.6399L768.017 88.7201ZM763.468 83.81H761.668V85.31H763.468V83.81ZM760.92 84.509C760.798 86.2941 760.758 90.3677 760.718 92.6268L762.218 92.6532C762.258 90.3523 762.298 86.3459 762.416 84.611L760.92 84.509Z" fill="#F9F2E5"/>
<path d="M556.76 101.92C556.92 97.4 557.04 84.72 557 83.4C556.96 81.44 555.96 78.8 559.68 78.8H567.92C575.08 78.8 579 82.84 578.76 88.36C578.56 93.8 575.24 98.04 568.24 98.04H565.2C565.2 99.08 565.2 100.92 565.24 101.4C565.36 103.36 566.32 106 562.64 106H559.56C556.76 106 556.72 103.68 556.76 101.92ZM565.04 92.64H566.76C569.8 92.64 570.8 90.96 570.84 88.68C570.96 86.44 570.04 84.56 567.04 84.56H565.24C565.12 86.32 565.08 90.36 565.04 92.64ZM588.25 101.92C588.41 97.4 588.49 84.72 588.45 83.4C588.41 81.44 587.41 78.8 591.13 78.8H604.37C606.49 78.8 606.81 79.76 606.81 81.24V83.24C606.85 84.8 605.93 85.44 604.21 85.4C602.53 85.36 599.61 85.36 596.77 85.36V89.6C599.01 89.6 601.97 89.6 602.85 89.56C603.93 89.52 604.85 90.04 604.85 91.36V93.36C604.85 94.92 604.41 95.16 603.05 95.2C601.93 95.2 598.89 95.16 596.65 95.2C596.61 96.84 596.61 98.2 596.65 99.52C599.25 99.52 603.05 99.48 604.33 99.4C606.09 99.28 606.85 100.04 606.85 101.6V104.16C606.85 105.68 606.49 106 604.37 106H591.05C588.25 106 588.21 103.68 588.25 101.92ZM621.526 101.96C621.646 100.28 621.966 89.92 621.926 85.36C620.646 85.36 618.006 85.36 617.166 85.44C615.446 85.6 614.886 84.8 614.926 83.24L614.966 80.64C614.966 79.16 615.286 78.8 617.446 78.8C617.446 78.8 631.886 78.92 635.366 78.68C637.126 78.6 637.566 79.56 637.526 81.12L637.486 83.56C637.446 85.04 637.166 85.4 635.006 85.4H630.286C630.086 90.92 630.046 100.28 630.046 101.4C630.086 103.36 631.126 106 627.446 106H624.366C621.566 106 621.486 103.72 621.526 101.96Z" fill="#F9F2E5"/>
<path d="M609.442 132.328C609.47 131.6 609.442 124.46 609.456 124.236C609.456 123.914 609.358 123.48 609.89 123.48H612.62C615.112 123.48 616.4 124.866 616.414 126.7C616.428 128.562 615.056 129.99 612.648 129.99H610.59C610.59 130.354 610.59 132.16 610.604 132.258C610.618 132.566 610.758 133 610.226 133H609.834C609.442 133 609.428 132.622 609.442 132.328ZM610.59 129.094H612.62C614.384 129.094 615.252 128.142 615.252 126.756C615.266 125.37 614.398 124.39 612.62 124.39H610.576C610.548 125.048 610.604 128.422 610.59 129.094ZM619.833 132.328C619.861 131.6 619.791 124.46 619.791 124.236C619.791 123.914 619.707 123.48 620.225 123.48H625.531C625.825 123.48 625.881 123.648 625.881 123.858V124.152C625.881 124.404 625.797 124.502 625.531 124.502H620.939V127.806C622.185 127.806 624.579 127.792 624.943 127.792C625.097 127.778 625.223 127.862 625.223 128.1V128.478C625.223 128.688 625.153 128.744 624.957 128.744C624.537 128.744 622.241 128.73 620.939 128.744C620.939 129.906 620.939 131.04 620.953 131.978C622.157 131.978 624.999 131.978 625.517 131.95C625.755 131.936 625.867 132.076 625.867 132.328V132.706C625.867 132.944 625.811 133 625.517 133H620.253C619.875 133 619.819 132.622 619.833 132.328ZM631.513 132.342C631.527 132.062 631.569 126.112 631.555 124.516C631.149 124.516 628.909 124.502 628.783 124.502C628.545 124.516 628.461 124.404 628.461 124.138V123.802C628.461 123.55 628.517 123.48 628.825 123.48C628.825 123.48 635.041 123.508 635.517 123.48C635.755 123.466 635.853 123.606 635.839 123.872V124.222C635.839 124.46 635.797 124.516 635.503 124.516H632.675C632.619 126.448 632.689 132.062 632.689 132.258C632.675 132.566 632.829 133 632.311 133H631.905C631.513 133 631.513 132.636 631.513 132.342ZM643.986 132.356C644.028 131.614 643.986 124.194 643.986 123.97C643.986 123.648 644 123.48 644.588 123.48H647.22C649.628 123.48 650.552 124.53 650.552 125.874C650.552 127.652 648.76 128.002 648.76 128.002V128.086C648.76 128.086 650.93 128.268 650.916 130.326C650.916 131.88 649.838 133 647.36 133H644.476C644.014 133 643.986 132.65 643.986 132.356ZM645.12 127.652H647.22C648.592 127.652 649.39 127.008 649.39 125.916C649.39 124.894 648.452 124.39 647.206 124.39H645.12V127.652ZM645.12 132.09H647.36C648.648 132.09 649.74 131.586 649.74 130.284C649.74 129.15 648.83 128.562 647.36 128.562H645.12V132.09ZM653.858 128.24C653.844 125.482 655.258 123.34 658.142 123.34C660.83 123.34 662.3 125.468 662.314 128.24C662.342 131.04 660.816 133.14 658.1 133.14C655.174 133.14 653.872 131.054 653.858 128.24ZM655.034 128.226C655.02 130.312 655.832 132.16 658.114 132.16C660.284 132.16 661.152 130.27 661.152 128.226C661.152 126.126 660.298 124.32 658.114 124.32C655.86 124.32 655.034 126.126 655.034 128.226ZM665.706 128.576C665.678 126.714 665.72 124.278 665.706 124.054C665.72 123.746 665.72 123.48 666.07 123.48H666.49C666.882 123.48 666.868 123.69 666.868 123.984C666.854 124.32 666.854 126.294 666.854 128.576C666.854 130.76 667.47 132.16 669.528 132.16C671.446 132.16 672.132 130.816 672.132 128.548C672.132 126.364 672.146 124.278 672.146 124.054C672.146 123.746 672.132 123.48 672.482 123.48H672.888C673.28 123.48 673.322 123.69 673.308 123.984C673.294 124.32 673.294 127.904 673.266 128.562C673.196 131.32 672.426 133.14 669.514 133.14C666.49 133.14 665.734 131.348 665.706 128.576ZM679.222 132.342C679.236 132.062 679.278 126.112 679.264 124.516C678.858 124.516 676.618 124.502 676.492 124.502C676.254 124.516 676.17 124.404 676.17 124.138V123.802C676.17 123.55 676.226 123.48 676.534 123.48C676.534 123.48 682.75 123.508 683.226 123.48C683.464 123.466 683.562 123.606 683.548 123.872V124.222C683.548 124.46 683.506 124.516 683.212 124.516H680.384C680.328 126.448 680.398 132.062 680.398 132.258C680.384 132.566 680.538 133 680.02 133H679.614C679.222 133 679.222 132.636 679.222 132.342ZM686.725 132.328C686.739 131.6 686.697 125.818 686.697 124.236C686.711 123.914 686.557 123.48 687.075 123.48H687.467C687.859 123.48 687.873 123.844 687.859 124.138C687.803 125.748 687.859 130.83 687.859 132.258C687.873 132.566 688.013 133 687.495 133H687.117C686.725 133 686.711 132.622 686.725 132.328ZM691.547 128.24C691.547 125.552 692.961 123.34 695.887 123.34C698.491 123.34 700.017 125.342 700.017 127.876C700.017 131.208 697.511 132.454 697.511 132.454C698.365 133.49 699.345 134.26 700.297 134.274C700.409 134.82 700.129 135.24 699.555 135.24C698.827 135.24 697.763 134.68 696.489 132.594H696.405C696.405 132.594 696.265 133.14 695.565 133.14C693.731 133.14 691.547 131.376 691.547 128.24ZM692.723 128.24C692.723 131.012 694.599 132.244 696.419 132.23C696.419 132.23 698.841 131.11 698.841 127.876C698.841 126.14 698.071 124.32 695.873 124.32C693.563 124.32 692.723 126.168 692.723 128.24ZM703.422 128.576C703.394 126.714 703.436 124.278 703.422 124.054C703.436 123.746 703.436 123.48 703.786 123.48H704.206C704.598 123.48 704.584 123.69 704.584 123.984C704.57 124.32 704.57 126.294 704.57 128.576C704.57 130.76 705.186 132.16 707.244 132.16C709.162 132.16 709.848 130.816 709.848 128.548C709.848 126.364 709.862 124.278 709.862 124.054C709.862 123.746 709.848 123.48 710.198 123.48H710.604C710.996 123.48 711.038 123.69 711.024 123.984C711.01 124.32 711.01 127.904 710.982 128.562C710.912 131.32 710.142 133.14 707.23 133.14C704.206 133.14 703.45 131.348 703.422 128.576ZM714.95 132.328C714.978 131.6 714.908 124.46 714.908 124.236C714.908 123.914 714.824 123.48 715.342 123.48H720.648C720.942 123.48 720.998 123.648 720.998 123.858V124.152C720.998 124.404 720.914 124.502 720.648 124.502H716.056V127.806C717.302 127.806 719.696 127.792 720.06 127.792C720.214 127.778 720.34 127.862 720.34 128.1V128.478C720.34 128.688 720.27 128.744 720.074 128.744C719.654 128.744 717.358 128.73 716.056 128.744C716.056 129.906 716.056 131.04 716.07 131.978C717.274 131.978 720.116 131.978 720.634 131.95C720.872 131.936 720.984 132.076 720.984 132.328V132.706C720.984 132.944 720.928 133 720.634 133H715.37C714.992 133 714.936 132.622 714.95 132.328Z" fill="#F9F2E5"/>
<rect width="331" height="203" fill="#F9F2E5"/>
<path d="M155.88 105.44L156.134 104.734L156.129 104.733L155.88 105.44ZM153.64 100.56L154.353 100.794L154.361 100.768L154.368 100.742L153.64 100.56ZM154.8 98.2L155.189 97.5585L154.648 97.2314L154.234 97.7079L154.8 98.2ZM164.84 97.84L165.59 97.8158L165.589 97.8002L165.588 97.7846L164.84 97.84ZM161.52 95.44L161.702 94.7124L161.699 94.7117L161.52 95.44ZM159.08 94.84L159.259 94.1117L159.258 94.1115L159.08 94.84ZM152.68 87.68L153.429 87.6388L153.429 87.6342L152.68 87.68ZM169.56 79.48L169.258 80.1665L169.271 80.1721L169.284 80.1773L169.56 79.48ZM171.2 84.4L171.912 84.6372L171.914 84.6305L171.916 84.6237L171.2 84.4ZM170.24 86.44L169.905 87.1108L170.515 87.4158L170.876 86.8375L170.24 86.44ZM160.76 86.96L160.01 86.9827L160.011 86.9981L160.012 87.0134L160.76 86.96ZM163.6 89L163.797 88.2764L163.789 88.2743L163.6 89ZM166.24 89.72L166.043 90.4436L166.048 90.4449L166.24 89.72ZM173.24 97.16L172.491 97.2051L172.492 97.2089L173.24 97.16ZM156.129 104.733C154.767 104.253 154.262 103.772 154.076 103.306C153.875 102.803 153.935 102.066 154.353 100.794L152.927 100.326C152.505 101.614 152.265 102.817 152.684 103.864C153.118 104.948 154.153 105.627 155.631 106.147L156.129 104.733ZM154.368 100.742C154.526 100.11 154.781 99.5887 154.999 99.2247C155.107 99.0436 155.204 98.9043 155.272 98.8129C155.306 98.7673 155.332 98.7339 155.349 98.7134C155.357 98.7032 155.363 98.6963 155.366 98.6927C155.367 98.6909 155.368 98.6899 155.368 98.6898C155.368 98.6898 155.368 98.69 155.368 98.6903C155.367 98.6905 155.367 98.6908 155.367 98.6911C155.367 98.6912 155.367 98.6914 155.366 98.6916C155.366 98.6917 155.366 98.6918 155.366 98.6918C155.366 98.692 155.366 98.6921 154.8 98.2C154.234 97.7079 154.234 97.708 154.234 97.7082C154.234 97.7082 154.234 97.7084 154.233 97.7085C154.233 97.7088 154.233 97.709 154.233 97.7093C154.232 97.7098 154.232 97.7104 154.231 97.711C154.23 97.7123 154.229 97.7138 154.227 97.7155C154.224 97.719 154.221 97.7234 154.216 97.7287C154.207 97.7393 154.196 97.7535 154.181 97.7712C154.153 97.8067 154.114 97.8564 154.067 97.9196C153.973 98.0457 153.848 98.2264 153.711 98.4553C153.439 98.9113 153.114 99.5697 152.912 100.378L154.368 100.742ZM154.8 98.2C154.411 98.8415 154.412 98.8417 154.412 98.8418C154.412 98.8419 154.412 98.842 154.412 98.8421C154.413 98.8423 154.413 98.8426 154.414 98.8429C154.415 98.8434 154.416 98.8441 154.417 98.8448C154.419 98.8463 154.423 98.8483 154.427 98.8506C154.434 98.8552 154.445 98.8614 154.458 98.8691C154.485 98.8845 154.523 98.9058 154.571 98.9321C154.667 98.9848 154.806 99.0577 154.985 99.1441C155.342 99.3167 155.86 99.5435 156.516 99.7692C157.828 100.22 159.701 100.67 161.96 100.67V99.17C159.899 99.17 158.192 98.7596 157.004 98.3508C156.41 98.1465 155.948 97.9433 155.638 97.7934C155.483 97.7185 155.366 97.6571 155.29 97.6157C155.252 97.595 155.225 97.5794 155.207 97.5695C155.199 97.5646 155.193 97.5612 155.19 97.5593C155.188 97.5584 155.187 97.5578 155.187 97.5577C155.187 97.5576 155.187 97.5576 155.187 97.5578C155.187 97.5578 155.188 97.5579 155.188 97.558C155.188 97.5581 155.188 97.5582 155.188 97.5582C155.188 97.5584 155.189 97.5585 154.8 98.2ZM161.96 100.67C162.965 100.67 163.866 100.437 164.532 99.9508C165.221 99.448 165.618 98.6978 165.59 97.8158L164.09 97.8642C164.102 98.2222 163.959 98.512 163.648 98.7392C163.314 98.9833 162.755 99.17 161.96 99.17V100.67ZM165.588 97.7846C165.531 97.02 165.186 96.3747 164.5 95.86C163.858 95.3787 162.931 95.0196 161.702 94.7124L161.338 96.1676C162.509 96.4604 163.202 96.7613 163.6 97.06C163.954 97.3253 164.069 97.58 164.092 97.8954L165.588 97.7846ZM161.699 94.7117L159.259 94.1117L158.901 95.5683L161.341 96.1683L161.699 94.7117ZM159.258 94.1115C157.447 93.6682 156.06 93.0154 155.097 92.0269C154.15 91.0538 153.541 89.6796 153.429 87.6388L151.931 87.7212C152.059 90.0404 152.77 91.7862 154.023 93.0731C155.26 94.3446 156.953 95.0918 158.902 95.5685L159.258 94.1115ZM153.429 87.6342C153.262 84.9102 154.2 82.823 155.841 81.4019C157.501 79.9642 159.95 79.15 162.88 79.15V77.65C159.69 77.65 156.859 78.5358 154.859 80.2681C152.84 82.017 151.738 84.5698 151.931 87.7258L153.429 87.6342ZM162.88 79.15C165.882 79.15 168.374 79.7777 169.258 80.1665L169.862 78.7935C168.746 78.3023 166.038 77.65 162.88 77.65V79.15ZM169.284 80.1773C170.321 80.5884 170.698 80.9168 170.847 81.3167C171.019 81.7794 170.985 82.5738 170.484 84.1763L171.916 84.6237C172.415 83.0262 172.621 81.7806 172.253 80.7933C171.862 79.7432 170.919 79.2116 169.836 78.7827L169.284 80.1773ZM170.488 84.1628C170.325 84.6521 170.104 85.1239 169.92 85.479C169.828 85.6549 169.747 85.7987 169.69 85.8973C169.662 85.9466 169.639 85.9844 169.624 86.0092C169.617 86.0216 169.611 86.0307 169.608 86.0363C169.606 86.0391 169.605 86.0411 169.604 86.0421C169.604 86.0426 169.604 86.0429 169.604 86.043C169.604 86.043 169.604 86.043 169.604 86.0429C169.604 86.0429 169.604 86.0428 169.604 86.0427C169.604 86.0427 169.604 86.0427 169.604 86.0426C169.604 86.0426 169.604 86.0425 170.24 86.44C170.876 86.8375 170.876 86.8374 170.876 86.8373C170.876 86.8373 170.876 86.8372 170.876 86.8372C170.876 86.837 170.876 86.8369 170.876 86.8367C170.877 86.8364 170.877 86.836 170.877 86.8356C170.878 86.8348 170.878 86.8337 170.879 86.8323C170.881 86.8297 170.883 86.8261 170.886 86.8216C170.891 86.8126 170.899 86.8001 170.909 86.7841C170.928 86.7521 170.955 86.7065 170.988 86.6489C171.055 86.5338 171.147 86.3701 171.25 86.171C171.456 85.7761 171.715 85.2279 171.912 84.6372L170.488 84.1628ZM170.24 86.44C170.575 85.7692 170.575 85.7691 170.575 85.769C170.575 85.769 170.575 85.7689 170.575 85.7688C170.574 85.7687 170.574 85.7685 170.574 85.7683C170.573 85.7679 170.572 85.7674 170.571 85.7669C170.568 85.7657 170.565 85.7642 170.562 85.7623C170.554 85.7586 170.543 85.7534 170.53 85.7469C170.503 85.7338 170.464 85.7154 170.414 85.6924C170.315 85.6464 170.172 85.5819 169.99 85.5052C169.626 85.3518 169.106 85.1487 168.474 84.9459C167.216 84.5421 165.485 84.13 163.64 84.13V85.63C165.275 85.63 166.844 85.9979 168.016 86.3741C168.599 86.5613 169.077 86.7482 169.407 86.8873C169.572 86.9568 169.699 87.0142 169.784 87.0535C169.826 87.0732 169.858 87.0883 169.878 87.0981C169.889 87.103 169.896 87.1066 169.9 87.1087C169.902 87.1098 169.904 87.1105 169.905 87.1109C169.905 87.111 169.905 87.1111 169.905 87.1111C169.905 87.1111 169.905 87.1111 169.905 87.111C169.905 87.111 169.905 87.111 169.905 87.1109C169.905 87.1109 169.905 87.1108 170.24 86.44ZM163.64 84.13C162.616 84.13 161.707 84.3342 161.04 84.8176C160.335 85.3287 159.983 86.0924 160.01 86.9827L161.51 86.9373C161.497 86.5075 161.645 86.2313 161.92 86.0324C162.233 85.8058 162.784 85.63 163.64 85.63V84.13ZM160.012 87.0134C160.07 87.8276 160.461 88.4201 161.107 88.8461C161.692 89.2319 162.494 89.4865 163.411 89.7257L163.789 88.2743C162.866 88.0335 162.288 87.8281 161.933 87.5939C161.639 87.3999 161.53 87.2124 161.508 86.9066L160.012 87.0134ZM163.403 89.7236L166.043 90.4436L166.437 88.9964L163.797 88.2764L163.403 89.7236ZM166.048 90.4449C168.593 91.1198 170.136 92.0875 171.07 93.2019C172 94.3108 172.398 95.6479 172.491 97.2051L173.989 97.1149C173.882 95.3521 173.42 93.6692 172.22 92.2381C171.024 90.8125 169.167 89.7202 166.432 88.9951L166.048 90.4449ZM172.492 97.2089C172.676 100.029 171.637 102.096 169.859 103.484C168.05 104.895 165.411 105.65 162.36 105.65V107.15C165.629 107.15 168.63 106.345 170.781 104.666C172.963 102.964 174.204 100.411 173.988 97.1111L172.492 97.2089ZM162.36 105.65C159.721 105.65 157.047 105.063 156.134 104.734L155.626 106.146C156.713 106.537 159.559 107.15 162.36 107.15V105.65ZM182.826 101.92L182.077 101.887L182.077 101.895L182.076 101.903L182.826 101.92ZM183.106 83.4L182.356 83.4153L182.357 83.4227L183.106 83.4ZM191.626 82.84L192.375 82.8775L192.375 82.8741L191.626 82.84ZM191.426 89.76L190.676 89.7506L190.667 90.51H191.426V89.76ZM200.026 89.76V90.51H200.767L200.776 89.7697L200.026 89.76ZM200.066 83.4H200.816V83.3923L200.816 83.3847L200.066 83.4ZM208.586 82.84L209.336 82.8706L209.336 82.857L208.586 82.84ZM208.266 101.4L209.015 101.354L209.014 101.347L208.266 101.4ZM199.746 101.92L198.997 101.883L198.997 101.893L198.996 101.903L199.746 101.92ZM199.906 95.4H200.656V94.65H199.906V95.4ZM191.266 95.4V94.65H190.516V95.4H191.266ZM191.346 101.4L192.095 101.354L192.094 101.343L192.093 101.332L191.346 101.4ZM183.576 101.953C183.776 97.4209 183.897 84.7213 183.856 83.3773L182.357 83.4227C182.396 84.7187 182.276 97.3791 182.077 101.887L183.576 101.953ZM183.856 83.3847C183.846 82.8685 183.769 82.2605 183.733 81.7954C183.692 81.2831 183.69 80.8674 183.767 80.5345C183.838 80.23 183.967 80.0238 184.201 79.8723C184.46 79.7038 184.932 79.55 185.786 79.55V78.05C184.781 78.05 183.982 78.2262 183.384 78.6139C182.76 79.0187 182.445 79.595 182.306 80.1955C182.173 80.7676 182.195 81.3794 182.237 81.9133C182.283 82.4945 182.347 82.9515 182.356 83.4153L183.856 83.3847ZM185.786 79.55H188.866V78.05H185.786V79.55ZM188.866 79.55C189.466 79.55 189.849 79.6717 190.1 79.8244C190.345 79.9736 190.517 80.1849 190.641 80.4638C190.909 81.0699 190.918 81.9069 190.877 82.8059L192.375 82.8741C192.415 82.0131 192.443 80.8301 192.012 79.8562C191.786 79.3451 191.427 78.8764 190.88 78.5431C190.338 78.2133 189.667 78.05 188.866 78.05V79.55ZM190.877 82.8025C190.837 83.6106 190.716 86.54 190.676 89.7506L192.176 89.7694C192.216 86.58 192.336 83.6694 192.375 82.8775L190.877 82.8025ZM191.426 90.51H200.026V89.01H191.426V90.51ZM200.776 89.7697C200.816 86.6848 200.816 84.201 200.816 83.4H199.316C199.316 84.199 199.316 86.6752 199.276 89.7503L200.776 89.7697ZM200.816 83.3847C200.806 82.8675 200.729 82.2612 200.692 81.7945C200.651 81.2817 200.647 80.8649 200.723 80.5307C200.792 80.2242 200.92 80.0193 201.148 79.8699C201.401 79.7035 201.863 79.55 202.706 79.55V78.05C201.71 78.05 200.917 78.2265 200.324 78.6164C199.705 79.0232 199.395 79.6008 199.26 80.1993C199.13 80.7701 199.154 81.3808 199.197 81.9142C199.243 82.4938 199.307 82.9525 199.316 83.4153L200.816 83.3847ZM202.706 79.55H205.826V78.05H202.706V79.55ZM205.826 79.55C206.414 79.55 206.789 79.6709 207.034 79.8221C207.274 79.9705 207.446 80.1819 207.571 80.4638C207.842 81.0763 207.857 81.9162 207.836 82.823L209.336 82.857C209.355 82.0038 209.371 80.8237 208.942 79.8562C208.717 79.3481 208.363 78.8795 207.821 78.5454C207.284 78.2141 206.619 78.05 205.826 78.05V79.55ZM207.837 82.8094C207.797 83.7951 207.667 87.7297 207.571 91.7724C207.477 95.7933 207.415 99.9883 207.518 101.453L209.014 101.347C208.918 99.9717 208.976 95.8667 209.071 91.8076C209.166 87.7703 209.296 83.8449 209.336 82.8706L207.837 82.8094ZM207.518 101.446C207.548 101.944 207.642 102.569 207.688 103.021C207.739 103.529 207.747 103.943 207.674 104.273C207.607 104.574 207.481 104.778 207.25 104.928C206.992 105.096 206.521 105.25 205.666 105.25V106.75C206.671 106.75 207.471 106.574 208.068 106.186C208.692 105.779 209.005 105.201 209.139 104.597C209.266 104.022 209.234 103.408 209.18 102.871C209.12 102.276 209.044 101.836 209.015 101.354L207.518 101.446ZM205.666 105.25H202.586V106.75H205.666V105.25ZM202.586 105.25C201.978 105.25 201.586 105.126 201.329 104.969C201.076 104.816 200.899 104.598 200.77 104.312C200.491 103.691 200.475 102.843 200.496 101.937L198.996 101.903C198.977 102.757 198.962 103.949 199.402 104.928C199.634 105.442 199.996 105.914 200.549 106.251C201.096 106.584 201.775 106.75 202.586 106.75V105.25ZM200.495 101.957C200.576 100.347 200.656 97.8942 200.656 95.4H199.156C199.156 97.8658 199.077 100.293 198.997 101.883L200.495 101.957ZM199.906 94.65H191.266V96.15H199.906V94.65ZM190.516 95.4C190.516 98.0526 190.515 100.544 190.599 101.468L192.093 101.332C192.017 100.496 192.016 98.1074 192.016 95.4H190.516ZM190.598 101.446C190.628 101.934 190.72 102.573 190.761 103.015C190.808 103.522 190.812 103.936 190.736 104.265C190.666 104.567 190.535 104.774 190.299 104.927C190.035 105.096 189.561 105.25 188.706 105.25V106.75C189.712 106.75 190.512 106.574 191.111 106.187C191.737 105.784 192.057 105.208 192.197 104.605C192.33 104.029 192.305 103.415 192.254 102.876C192.198 102.272 192.125 101.846 192.095 101.354L190.598 101.446ZM188.706 105.25H185.626V106.75H188.706V105.25ZM185.626 105.25C185.029 105.25 184.647 105.127 184.396 104.972C184.149 104.82 183.974 104.603 183.847 104.316C183.571 103.693 183.555 102.843 183.576 101.937L182.076 101.903C182.057 102.757 182.042 103.947 182.476 104.924C182.703 105.437 183.061 105.91 183.608 106.248C184.151 106.583 184.823 106.75 185.626 106.75V105.25ZM218.237 92.4L217.487 92.3848L217.487 92.3887L218.237 92.4ZM243.477 92.4L244.227 92.4151L244.227 92.4114L243.477 92.4ZM234.997 92.36H234.247L234.247 92.3682L234.997 92.36ZM226.597 92.36L225.847 92.3679L225.847 92.3761L226.597 92.36ZM218.987 92.4152C219.065 88.584 220.056 85.265 221.969 82.9189C223.862 80.5964 226.719 79.15 230.717 79.15V77.65C226.316 77.65 223.013 79.2636 220.806 81.9711C218.618 84.655 217.57 88.336 217.487 92.3848L218.987 92.4152ZM230.717 79.15C234.681 79.15 237.685 80.5909 239.694 82.9199C241.714 85.2618 242.785 88.5702 242.727 92.3886L244.227 92.4114C244.289 88.3098 243.14 84.6182 240.83 81.9401C238.509 79.2491 235.074 77.65 230.717 77.65V79.15ZM242.727 92.3849C242.65 96.2302 241.621 99.5496 239.689 101.893C237.774 104.215 234.914 105.65 230.997 105.65V107.15C235.321 107.15 238.621 105.545 240.846 102.847C243.053 100.17 244.145 96.4898 244.227 92.4151L242.727 92.3849ZM230.997 105.65C226.949 105.65 223.947 104.216 221.962 101.897C219.964 99.5639 218.929 96.257 218.987 92.4113L217.487 92.3887C217.425 96.503 218.53 100.196 220.823 102.873C223.127 105.564 226.566 107.15 230.997 107.15V105.65ZM230.837 100.35C231.85 100.35 232.708 100.092 233.408 99.6004C234.103 99.1131 234.594 98.4323 234.937 97.6667C235.611 96.1609 235.767 94.2131 235.747 92.3518L234.247 92.3682C234.267 94.1869 234.103 95.8591 233.568 97.0533C233.306 97.6377 232.968 98.0769 232.547 98.3721C232.132 98.6635 231.584 98.85 230.837 98.85V100.35ZM235.747 92.36C235.747 90.434 235.549 88.5057 234.856 87.0352C234.503 86.2878 234.011 85.6321 233.328 85.1653C232.64 84.6951 231.808 84.45 230.837 84.45V85.95C231.546 85.95 232.074 86.1249 232.481 86.4035C232.894 86.6854 233.231 87.1072 233.499 87.6748C234.045 88.8343 234.247 90.486 234.247 92.36H235.747ZM230.837 84.45C229.833 84.45 228.977 84.6914 228.27 85.159C227.567 85.6245 227.062 86.2812 226.705 87.033C226.003 88.5095 225.827 90.4439 225.847 92.3679L227.347 92.3521C227.327 90.4761 227.511 88.8305 228.06 87.6769C228.327 87.1138 228.67 86.693 229.098 86.4098C229.523 86.1286 230.081 85.95 230.837 85.95V84.45ZM225.847 92.3761C225.888 94.252 226.087 96.1949 226.776 97.689C227.126 98.4483 227.616 99.1227 228.304 99.6056C228.997 100.093 229.842 100.35 230.837 100.35V98.85C230.112 98.85 229.577 98.6671 229.166 98.3782C228.748 98.0848 228.408 97.6467 228.138 97.061C227.587 95.8651 227.387 94.188 227.347 92.3439L225.847 92.3761ZM253.188 101.92L252.439 101.893L252.438 101.903L253.188 101.92ZM253.428 83.4L252.678 83.4153L252.678 83.4227L253.428 83.4ZM275.188 88.36L274.439 88.3274L274.439 88.3324L275.188 88.36ZM261.628 98.04V97.29H260.878V98.04H261.628ZM261.668 101.4L262.417 101.354L262.416 101.346L262.416 101.338L261.668 101.4ZM261.468 92.64L260.718 92.6268L260.705 93.39H261.468V92.64ZM267.268 88.68L266.519 88.6399L266.518 88.6534L266.518 88.6668L267.268 88.68ZM261.668 84.56V83.81H260.968L260.92 84.509L261.668 84.56ZM253.938 101.947C254.098 97.4203 254.219 84.7215 254.178 83.3773L252.678 83.4227C252.718 84.7185 252.598 97.3797 252.439 101.893L253.938 101.947ZM254.178 83.3847C254.167 82.8685 254.091 82.2605 254.055 81.7954C254.014 81.2831 254.011 80.8674 254.089 80.5345C254.159 80.23 254.289 80.0238 254.523 79.8723C254.782 79.7038 255.254 79.55 256.108 79.55V78.05C255.103 78.05 254.304 78.2262 253.706 78.6139C253.082 79.0187 252.767 79.595 252.628 80.1955C252.495 80.7676 252.517 81.3794 252.559 81.9133C252.605 82.4945 252.669 82.9515 252.678 83.4153L254.178 83.3847ZM256.108 79.55H264.348V78.05H256.108V79.55ZM264.348 79.55C267.791 79.55 270.362 80.5201 272.035 82.0616C273.699 83.595 274.55 85.762 274.439 88.3274L275.937 88.3926C276.066 85.438 275.077 82.825 273.051 80.9584C271.034 79.0999 268.065 78.05 264.348 78.05V79.55ZM274.439 88.3324C274.344 90.9105 273.514 93.1347 271.946 94.7112C270.385 96.2815 268.012 97.29 264.668 97.29V98.79C268.324 98.79 271.111 97.6785 273.01 95.7688C274.903 93.8653 275.832 91.2495 275.938 88.3876L274.439 88.3324ZM264.668 97.29H261.628V98.79H264.668V97.29ZM260.878 98.04C260.878 99.0531 260.877 100.942 260.921 101.462L262.416 101.338C262.379 100.898 262.378 99.1069 262.378 98.04H260.878ZM260.92 101.446C260.95 101.936 261.041 102.571 261.083 103.016C261.131 103.524 261.137 103.939 261.062 104.269C260.993 104.573 260.864 104.778 260.633 104.929C260.377 105.097 259.911 105.25 259.068 105.25V106.75C260.065 106.75 260.859 106.573 261.454 106.185C262.075 105.779 262.388 105.202 262.525 104.601C262.655 104.026 262.628 103.414 262.577 102.875C262.52 102.274 262.447 101.844 262.417 101.354L260.92 101.446ZM259.068 105.25H255.988V106.75H259.068V105.25ZM255.988 105.25C255.391 105.25 255.009 105.127 254.758 104.972C254.511 104.82 254.336 104.603 254.209 104.316C253.932 103.693 253.917 102.843 253.938 101.937L252.438 101.903C252.419 102.757 252.404 103.947 252.838 104.924C253.065 105.437 253.423 105.91 253.97 106.248C254.512 106.583 255.185 106.75 255.988 106.75V105.25ZM261.468 93.39H263.188V91.89H261.468V93.39ZM263.188 93.39C264.845 93.39 266.089 92.9284 266.91 92.0169C267.716 91.1226 267.996 89.923 268.018 88.6932L266.518 88.6668C266.5 89.717 266.26 90.4974 265.796 91.0131C265.347 91.5116 264.571 91.89 263.188 91.89V93.39ZM268.017 88.7201C268.082 87.5052 267.874 86.2654 267.128 85.3163C266.359 84.3388 265.131 83.81 263.468 83.81V85.31C264.805 85.31 265.538 85.7212 265.949 86.2437C266.382 86.7946 266.574 87.6148 266.519 88.6399L268.017 88.7201ZM263.468 83.81H261.668V85.31H263.468V83.81ZM260.92 84.509C260.798 86.2941 260.758 90.3677 260.718 92.6268L262.218 92.6532C262.258 90.3523 262.298 86.3459 262.416 84.611L260.92 84.509Z" fill="#DB9362"/>
<path d="M56.76 101.92C56.92 97.4 57.04 84.72 57 83.4C56.96 81.44 55.96 78.8 59.68 78.8H67.92C75.08 78.8 79 82.84 78.76 88.36C78.56 93.8 75.24 98.04 68.24 98.04H65.2C65.2 99.08 65.2 100.92 65.24 101.4C65.36 103.36 66.32 106 62.64 106H59.56C56.76 106 56.72 103.68 56.76 101.92ZM65.04 92.64H66.76C69.8 92.64 70.8 90.96 70.84 88.68C70.96 86.44 70.04 84.56 67.04 84.56H65.24C65.12 86.32 65.08 90.36 65.04 92.64ZM88.25 101.92C88.41 97.4 88.49 84.72 88.45 83.4C88.41 81.44 87.41 78.8 91.13 78.8H104.37C106.49 78.8 106.81 79.76 106.81 81.24V83.24C106.85 84.8 105.93 85.44 104.21 85.4C102.53 85.36 99.61 85.36 96.77 85.36V89.6C99.01 89.6 101.97 89.6 102.85 89.56C103.93 89.52 104.85 90.04 104.85 91.36V93.36C104.85 94.92 104.41 95.16 103.05 95.2C101.93 95.2 98.89 95.16 96.65 95.2C96.61 96.84 96.61 98.2 96.65 99.52C99.25 99.52 103.05 99.48 104.33 99.4C106.09 99.28 106.85 100.04 106.85 101.6V104.16C106.85 105.68 106.49 106 104.37 106H91.05C88.25 106 88.21 103.68 88.25 101.92ZM121.526 101.96C121.646 100.28 121.966 89.92 121.926 85.36C120.646 85.36 118.006 85.36 117.166 85.44C115.446 85.6 114.886 84.8 114.926 83.24L114.966 80.64C114.966 79.16 115.286 78.8 117.446 78.8C117.446 78.8 131.886 78.92 135.366 78.68C137.126 78.6 137.566 79.56 137.526 81.12L137.486 83.56C137.446 85.04 137.166 85.4 135.006 85.4H130.286C130.086 90.92 130.046 100.28 130.046 101.4C130.086 103.36 131.126 106 127.446 106H124.366C121.566 106 121.486 103.72 121.526 101.96Z" fill="#DB9362"/>
<path d="M109.442 132.328C109.47 131.6 109.442 124.46 109.456 124.236C109.456 123.914 109.358 123.48 109.89 123.48H112.62C115.112 123.48 116.4 124.866 116.414 126.7C116.428 128.562 115.056 129.99 112.648 129.99H110.59C110.59 130.354 110.59 132.16 110.604 132.258C110.618 132.566 110.758 133 110.226 133H109.834C109.442 133 109.428 132.622 109.442 132.328ZM110.59 129.094H112.62C114.384 129.094 115.252 128.142 115.252 126.756C115.266 125.37 114.398 124.39 112.62 124.39H110.576C110.548 125.048 110.604 128.422 110.59 129.094ZM119.833 132.328C119.861 131.6 119.791 124.46 119.791 124.236C119.791 123.914 119.707 123.48 120.225 123.48H125.531C125.825 123.48 125.881 123.648 125.881 123.858V124.152C125.881 124.404 125.797 124.502 125.531 124.502H120.939V127.806C122.185 127.806 124.579 127.792 124.943 127.792C125.097 127.778 125.223 127.862 125.223 128.1V128.478C125.223 128.688 125.153 128.744 124.957 128.744C124.537 128.744 122.241 128.73 120.939 128.744C120.939 129.906 120.939 131.04 120.953 131.978C122.157 131.978 124.999 131.978 125.517 131.95C125.755 131.936 125.867 132.076 125.867 132.328V132.706C125.867 132.944 125.811 133 125.517 133H120.253C119.875 133 119.819 132.622 119.833 132.328ZM131.513 132.342C131.527 132.062 131.569 126.112 131.555 124.516C131.149 124.516 128.909 124.502 128.783 124.502C128.545 124.516 128.461 124.404 128.461 124.138V123.802C128.461 123.55 128.517 123.48 128.825 123.48C128.825 123.48 135.041 123.508 135.517 123.48C135.755 123.466 135.853 123.606 135.839 123.872V124.222C135.839 124.46 135.797 124.516 135.503 124.516H132.675C132.619 126.448 132.689 132.062 132.689 132.258C132.675 132.566 132.829 133 132.311 133H131.905C131.513 133 131.513 132.636 131.513 132.342ZM143.986 132.356C144.028 131.614 143.986 124.194 143.986 123.97C143.986 123.648 144 123.48 144.588 123.48H147.22C149.628 123.48 150.552 124.53 150.552 125.874C150.552 127.652 148.76 128.002 148.76 128.002V128.086C148.76 128.086 150.93 128.268 150.916 130.326C150.916 131.88 149.838 133 147.36 133H144.476C144.014 133 143.986 132.65 143.986 132.356ZM145.12 127.652H147.22C148.592 127.652 149.39 127.008 149.39 125.916C149.39 124.894 148.452 124.39 147.206 124.39H145.12V127.652ZM145.12 132.09H147.36C148.648 132.09 149.74 131.586 149.74 130.284C149.74 129.15 148.83 128.562 147.36 128.562H145.12V132.09ZM153.858 128.24C153.844 125.482 155.258 123.34 158.142 123.34C160.83 123.34 162.3 125.468 162.314 128.24C162.342 131.04 160.816 133.14 158.1 133.14C155.174 133.14 153.872 131.054 153.858 128.24ZM155.034 128.226C155.02 130.312 155.832 132.16 158.114 132.16C160.284 132.16 161.152 130.27 161.152 128.226C161.152 126.126 160.298 124.32 158.114 124.32C155.86 124.32 155.034 126.126 155.034 128.226ZM165.706 128.576C165.678 126.714 165.72 124.278 165.706 124.054C165.72 123.746 165.72 123.48 166.07 123.48H166.49C166.882 123.48 166.868 123.69 166.868 123.984C166.854 124.32 166.854 126.294 166.854 128.576C166.854 130.76 167.47 132.16 169.528 132.16C171.446 132.16 172.132 130.816 172.132 128.548C172.132 126.364 172.146 124.278 172.146 124.054C172.146 123.746 172.132 123.48 172.482 123.48H172.888C173.28 123.48 173.322 123.69 173.308 123.984C173.294 124.32 173.294 127.904 173.266 128.562C173.196 131.32 172.426 133.14 169.514 133.14C166.49 133.14 165.734 131.348 165.706 128.576ZM179.222 132.342C179.236 132.062 179.278 126.112 179.264 124.516C178.858 124.516 176.618 124.502 176.492 124.502C176.254 124.516 176.17 124.404 176.17 124.138V123.802C176.17 123.55 176.226 123.48 176.534 123.48C176.534 123.48 182.75 123.508 183.226 123.48C183.464 123.466 183.562 123.606 183.548 123.872V124.222C183.548 124.46 183.506 124.516 183.212 124.516H180.384C180.328 126.448 180.398 132.062 180.398 132.258C180.384 132.566 180.538 133 180.02 133H179.614C179.222 133 179.222 132.636 179.222 132.342ZM186.725 132.328C186.739 131.6 186.697 125.818 186.697 124.236C186.711 123.914 186.557 123.48 187.075 123.48H187.467C187.859 123.48 187.873 123.844 187.859 124.138C187.803 125.748 187.859 130.83 187.859 132.258C187.873 132.566 188.013 133 187.495 133H187.117C186.725 133 186.711 132.622 186.725 132.328ZM191.547 128.24C191.547 125.552 192.961 123.34 195.887 123.34C198.491 123.34 200.017 125.342 200.017 127.876C200.017 131.208 197.511 132.454 197.511 132.454C198.365 133.49 199.345 134.26 200.297 134.274C200.409 134.82 200.129 135.24 199.555 135.24C198.827 135.24 197.763 134.68 196.489 132.594H196.405C196.405 132.594 196.265 133.14 195.565 133.14C193.731 133.14 191.547 131.376 191.547 128.24ZM192.723 128.24C192.723 131.012 194.599 132.244 196.419 132.23C196.419 132.23 198.841 131.11 198.841 127.876C198.841 126.14 198.071 124.32 195.873 124.32C193.563 124.32 192.723 126.168 192.723 128.24ZM203.422 128.576C203.394 126.714 203.436 124.278 203.422 124.054C203.436 123.746 203.436 123.48 203.786 123.48H204.206C204.598 123.48 204.584 123.69 204.584 123.984C204.57 124.32 204.57 126.294 204.57 128.576C204.57 130.76 205.186 132.16 207.244 132.16C209.162 132.16 209.848 130.816 209.848 128.548C209.848 126.364 209.862 124.278 209.862 124.054C209.862 123.746 209.848 123.48 210.198 123.48H210.604C210.996 123.48 211.038 123.69 211.024 123.984C211.01 124.32 211.01 127.904 210.982 128.562C210.912 131.32 210.142 133.14 207.23 133.14C204.206 133.14 203.45 131.348 203.422 128.576ZM214.95 132.328C214.978 131.6 214.908 124.46 214.908 124.236C214.908 123.914 214.824 123.48 215.342 123.48H220.648C220.942 123.48 220.998 123.648 220.998 123.858V124.152C220.998 124.404 220.914 124.502 220.648 124.502H216.056V127.806C217.302 127.806 219.696 127.792 220.06 127.792C220.214 127.778 220.34 127.862 220.34 128.1V128.478C220.34 128.688 220.27 128.744 220.074 128.744C219.654 128.744 217.358 128.73 216.056 128.744C216.056 129.906 216.056 131.04 216.07 131.978C217.274 131.978 220.116 131.978 220.634 131.95C220.872 131.936 220.984 132.076 220.984 132.328V132.706C220.984 132.944 220.928 133 220.634 133H215.37C214.992 133 214.936 132.622 214.95 132.328Z" fill="#DB9362"/>
</svg>
